ISO-10303-21;
HEADER;
/* Generated by software containing ST-Developer
 * from STEP Tools, Inc. (www.steptools.com) 
 */
/* OPTION: using custom renumber hook */

FILE_DESCRIPTION(
/* description */ ('STEP AP242',
'CAx-IF Rec.Pracs.---Representation and Presentation of Product Manufa
cturing Information (PMI)---4.0---2014-10-13',
'CAx-IF Rec.Pracs.---3D Tessellated Geometry---0.4---2014-09-14','2;1'),

/* implementation_level */ '2;1');

FILE_NAME(
/* name */ '6871ad8f5c4bec332fbb78a6',
/* time_stamp */ '2025-07-12T00:34:23Z',
/* author */ (''),
/* organization */ (''),
/* preprocessor_version */ 'ST-DEVELOPER v20',
/* originating_system */ 'ONSHAPE BY PTC INC, 1.200',
/* authorisation */ '  ');

FILE_SCHEMA (('AP242_MANAGED_MODEL_BASED_3D_ENGINEERING_MIM_LF { 1 0 10303 442 1 1 4 }'));
ENDSEC;

DATA;
#10=SHAPE_REPRESENTATION_RELATIONSHIP('','',#975,#11);
#11=ADVANCED_BREP_SHAPE_REPRESENTATION('',(#973),#1601);
#12=CYLINDRICAL_SURFACE('',#1047,0.009525);
#13=CYLINDRICAL_SURFACE('',#1048,0.0024892);
#14=CYLINDRICAL_SURFACE('',#1049,0.0024892);
#15=CYLINDRICAL_SURFACE('',#1050,0.0024892);
#16=CYLINDRICAL_SURFACE('',#1051,0.0024892);
#17=CYLINDRICAL_SURFACE('',#1052,0.0142875);
#18=CYLINDRICAL_SURFACE('',#1053,0.0142875);
#19=CYLINDRICAL_SURFACE('',#1054,0.0024892);
#20=CYLINDRICAL_SURFACE('',#1055,0.0024892);
#21=CYLINDRICAL_SURFACE('',#1056,0.009525);
#22=CYLINDRICAL_SURFACE('',#1057,0.0024892);
#23=CYLINDRICAL_SURFACE('',#1058,0.0024892);
#24=CYLINDRICAL_SURFACE('',#1059,0.0024892);
#25=CYLINDRICAL_SURFACE('',#1060,0.0024892);
#26=CYLINDRICAL_SURFACE('',#1061,0.0142875);
#27=CYLINDRICAL_SURFACE('',#1062,0.0142875);
#28=CYLINDRICAL_SURFACE('',#1063,0.0024892);
#29=CYLINDRICAL_SURFACE('',#1064,0.0024892);
#30=CYLINDRICAL_SURFACE('',#1073,0.0024892);
#31=CYLINDRICAL_SURFACE('',#1074,0.0024892);
#32=CYLINDRICAL_SURFACE('',#1075,0.0024892);
#33=CYLINDRICAL_SURFACE('',#1076,0.0024892);
#34=CYLINDRICAL_SURFACE('',#1077,0.0024892);
#35=CYLINDRICAL_SURFACE('',#1078,0.0024892);
#36=CYLINDRICAL_SURFACE('',#1079,0.0024892);
#37=CYLINDRICAL_SURFACE('',#1080,0.0024892);
#38=CYLINDRICAL_SURFACE('',#1081,0.0024892);
#39=CYLINDRICAL_SURFACE('',#1082,0.0024892);
#40=CYLINDRICAL_SURFACE('',#1083,0.0024892);
#41=CYLINDRICAL_SURFACE('',#1084,0.0024892);
#42=LINE('',#1363,#90);
#43=LINE('',#1366,#91);
#44=LINE('',#1368,#92);
#45=LINE('',#1370,#93);
#46=LINE('',#1400,#94);
#47=LINE('',#1403,#95);
#48=LINE('',#1405,#96);
#49=LINE('',#1407,#97);
#50=LINE('',#1441,#98);
#51=LINE('',#1444,#99);
#52=LINE('',#1446,#100);
#53=LINE('',#1448,#101);
#54=LINE('',#1478,#102);
#55=LINE('',#1481,#103);
#56=LINE('',#1483,#104);
#57=LINE('',#1485,#105);
#58=LINE('',#1509,#106);
#59=LINE('',#1510,#107);
#60=LINE('',#1511,#108);
#61=LINE('',#1512,#109);
#62=LINE('',#1514,#110);
#63=LINE('',#1517,#111);
#64=LINE('',#1519,#112);
#65=LINE('',#1521,#113);
#66=LINE('',#1523,#114);
#67=LINE('',#1525,#115);
#68=LINE('',#1527,#116);
#69=LINE('',#1529,#117);
#70=LINE('',#1530,#118);
#71=LINE('',#1532,#119);
#72=LINE('',#1533,#120);
#73=LINE('',#1534,#121);
#74=LINE('',#1538,#122);
#75=LINE('',#1541,#123);
#76=LINE('',#1543,#124);
#77=LINE('',#1545,#125);
#78=LINE('',#1547,#126);
#79=LINE('',#1549,#127);
#80=LINE('',#1551,#128);
#81=LINE('',#1553,#129);
#82=LINE('',#1573,#130);
#83=LINE('',#1574,#131);
#84=LINE('',#1576,#132);
#85=LINE('',#1578,#133);
#86=LINE('',#1580,#134);
#87=LINE('',#1582,#135);
#88=LINE('',#1584,#136);
#89=LINE('',#1586,#137);
#90=VECTOR('',#1099,1.);
#91=VECTOR('',#1100,1.);
#92=VECTOR('',#1101,1.);
#93=VECTOR('',#1102,1.);
#94=VECTOR('',#1133,1.);
#95=VECTOR('',#1134,1.);
#96=VECTOR('',#1135,1.);
#97=VECTOR('',#1136,1.);
#98=VECTOR('',#1171,1.);
#99=VECTOR('',#1172,1.);
#100=VECTOR('',#1173,1.);
#101=VECTOR('',#1174,1.);
#102=VECTOR('',#1205,1.);
#103=VECTOR('',#1206,1.);
#104=VECTOR('',#1207,1.);
#105=VECTOR('',#1208,1.);
#106=VECTOR('',#1233,1.);
#107=VECTOR('',#1234,1.);
#108=VECTOR('',#1235,1.);
#109=VECTOR('',#1236,1.);
#110=VECTOR('',#1239,1.);
#111=VECTOR('',#1240,1.);
#112=VECTOR('',#1241,1.);
#113=VECTOR('',#1242,1.);
#114=VECTOR('',#1243,1.);
#115=VECTOR('',#1244,1.);
#116=VECTOR('',#1245,1.);
#117=VECTOR('',#1246,1.);
#118=VECTOR('',#1247,1.);
#119=VECTOR('',#1250,1.);
#120=VECTOR('',#1251,1.);
#121=VECTOR('',#1252,1.);
#122=VECTOR('',#1259,1.);
#123=VECTOR('',#1260,1.);
#124=VECTOR('',#1261,1.);
#125=VECTOR('',#1262,1.);
#126=VECTOR('',#1263,1.);
#127=VECTOR('',#1264,1.);
#128=VECTOR('',#1265,1.);
#129=VECTOR('',#1266,1.);
#130=VECTOR('',#1305,1.);
#131=VECTOR('',#1306,1.);
#132=VECTOR('',#1309,1.);
#133=VECTOR('',#1312,1.);
#134=VECTOR('',#1315,1.);
#135=VECTOR('',#1318,1.);
#136=VECTOR('',#1321,1.);
#137=VECTOR('',#1324,1.);
#138=ORIENTED_EDGE('',*,*,#354,.T.);
#139=ORIENTED_EDGE('',*,*,#355,.T.);
#140=ORIENTED_EDGE('',*,*,#356,.T.);
#141=ORIENTED_EDGE('',*,*,#357,.F.);
#142=ORIENTED_EDGE('',*,*,#358,.T.);
#143=ORIENTED_EDGE('',*,*,#359,.F.);
#144=ORIENTED_EDGE('',*,*,#360,.T.);
#145=ORIENTED_EDGE('',*,*,#361,.T.);
#146=ORIENTED_EDGE('',*,*,#362,.F.);
#147=ORIENTED_EDGE('',*,*,#363,.F.);
#148=ORIENTED_EDGE('',*,*,#364,.F.);
#149=ORIENTED_EDGE('',*,*,#365,.T.);
#150=ORIENTED_EDGE('',*,*,#366,.F.);
#151=ORIENTED_EDGE('',*,*,#367,.F.);
#152=ORIENTED_EDGE('',*,*,#368,.F.);
#153=ORIENTED_EDGE('',*,*,#369,.T.);
#154=ORIENTED_EDGE('',*,*,#370,.F.);
#155=ORIENTED_EDGE('',*,*,#371,.F.);
#156=ORIENTED_EDGE('',*,*,#372,.F.);
#157=ORIENTED_EDGE('',*,*,#373,.F.);
#158=ORIENTED_EDGE('',*,*,#374,.T.);
#159=ORIENTED_EDGE('',*,*,#375,.T.);
#160=ORIENTED_EDGE('',*,*,#376,.T.);
#161=ORIENTED_EDGE('',*,*,#377,.T.);
#162=ORIENTED_EDGE('',*,*,#378,.T.);
#163=ORIENTED_EDGE('',*,*,#379,.F.);
#164=ORIENTED_EDGE('',*,*,#380,.F.);
#165=ORIENTED_EDGE('',*,*,#381,.F.);
#166=ORIENTED_EDGE('',*,*,#382,.F.);
#167=ORIENTED_EDGE('',*,*,#383,.F.);
#168=ORIENTED_EDGE('',*,*,#384,.F.);
#169=ORIENTED_EDGE('',*,*,#385,.F.);
#170=ORIENTED_EDGE('',*,*,#386,.F.);
#171=ORIENTED_EDGE('',*,*,#387,.T.);
#172=ORIENTED_EDGE('',*,*,#388,.T.);
#173=ORIENTED_EDGE('',*,*,#389,.F.);
#174=ORIENTED_EDGE('',*,*,#390,.T.);
#175=ORIENTED_EDGE('',*,*,#391,.F.);
#176=ORIENTED_EDGE('',*,*,#392,.T.);
#177=ORIENTED_EDGE('',*,*,#393,.T.);
#178=ORIENTED_EDGE('',*,*,#394,.T.);
#179=ORIENTED_EDGE('',*,*,#395,.F.);
#180=ORIENTED_EDGE('',*,*,#396,.T.);
#181=ORIENTED_EDGE('',*,*,#397,.T.);
#182=ORIENTED_EDGE('',*,*,#398,.F.);
#183=ORIENTED_EDGE('',*,*,#399,.F.);
#184=ORIENTED_EDGE('',*,*,#400,.F.);
#185=ORIENTED_EDGE('',*,*,#401,.F.);
#186=ORIENTED_EDGE('',*,*,#402,.F.);
#187=ORIENTED_EDGE('',*,*,#403,.T.);
#188=ORIENTED_EDGE('',*,*,#404,.F.);
#189=ORIENTED_EDGE('',*,*,#405,.F.);
#190=ORIENTED_EDGE('',*,*,#406,.F.);
#191=ORIENTED_EDGE('',*,*,#407,.T.);
#192=ORIENTED_EDGE('',*,*,#408,.F.);
#193=ORIENTED_EDGE('',*,*,#409,.F.);
#194=ORIENTED_EDGE('',*,*,#410,.F.);
#195=ORIENTED_EDGE('',*,*,#411,.T.);
#196=ORIENTED_EDGE('',*,*,#412,.F.);
#197=ORIENTED_EDGE('',*,*,#413,.F.);
#198=ORIENTED_EDGE('',*,*,#414,.F.);
#199=ORIENTED_EDGE('',*,*,#415,.T.);
#200=ORIENTED_EDGE('',*,*,#416,.T.);
#201=ORIENTED_EDGE('',*,*,#417,.T.);
#202=ORIENTED_EDGE('',*,*,#418,.F.);
#203=ORIENTED_EDGE('',*,*,#419,.T.);
#204=ORIENTED_EDGE('',*,*,#420,.T.);
#205=ORIENTED_EDGE('',*,*,#421,.T.);
#206=ORIENTED_EDGE('',*,*,#422,.T.);
#207=ORIENTED_EDGE('',*,*,#423,.T.);
#208=ORIENTED_EDGE('',*,*,#424,.T.);
#209=ORIENTED_EDGE('',*,*,#425,.F.);
#210=ORIENTED_EDGE('',*,*,#426,.F.);
#211=ORIENTED_EDGE('',*,*,#427,.T.);
#212=ORIENTED_EDGE('',*,*,#428,.F.);
#213=ORIENTED_EDGE('',*,*,#429,.T.);
#214=ORIENTED_EDGE('',*,*,#430,.F.);
#215=ORIENTED_EDGE('',*,*,#398,.T.);
#216=ORIENTED_EDGE('',*,*,#431,.T.);
#217=ORIENTED_EDGE('',*,*,#417,.F.);
#218=ORIENTED_EDGE('',*,*,#377,.F.);
#219=ORIENTED_EDGE('',*,*,#432,.F.);
#220=ORIENTED_EDGE('',*,*,#359,.T.);
#221=ORIENTED_EDGE('',*,*,#433,.T.);
#222=ORIENTED_EDGE('',*,*,#434,.F.);
#223=ORIENTED_EDGE('',*,*,#435,.F.);
#224=ORIENTED_EDGE('',*,*,#436,.F.);
#225=ORIENTED_EDGE('',*,*,#437,.F.);
#226=ORIENTED_EDGE('',*,*,#438,.F.);
#227=ORIENTED_EDGE('',*,*,#439,.F.);
#228=ORIENTED_EDGE('',*,*,#440,.F.);
#229=ORIENTED_EDGE('',*,*,#441,.F.);
#230=ORIENTED_EDGE('',*,*,#380,.T.);
#231=ORIENTED_EDGE('',*,*,#442,.F.);
#232=ORIENTED_EDGE('',*,*,#360,.F.);
#233=ORIENTED_EDGE('',*,*,#432,.T.);
#234=ORIENTED_EDGE('',*,*,#400,.T.);
#235=ORIENTED_EDGE('',*,*,#443,.F.);
#236=ORIENTED_EDGE('',*,*,#415,.F.);
#237=ORIENTED_EDGE('',*,*,#444,.T.);
#238=ORIENTED_EDGE('',*,*,#379,.T.);
#239=ORIENTED_EDGE('',*,*,#445,.F.);
#240=ORIENTED_EDGE('',*,*,#361,.F.);
#241=ORIENTED_EDGE('',*,*,#442,.T.);
#242=ORIENTED_EDGE('',*,*,#378,.F.);
#243=ORIENTED_EDGE('',*,*,#433,.F.);
#244=ORIENTED_EDGE('',*,*,#362,.T.);
#245=ORIENTED_EDGE('',*,*,#445,.T.);
#246=ORIENTED_EDGE('',*,*,#418,.T.);
#247=ORIENTED_EDGE('',*,*,#431,.F.);
#248=ORIENTED_EDGE('',*,*,#397,.F.);
#249=ORIENTED_EDGE('',*,*,#444,.F.);
#250=ORIENTED_EDGE('',*,*,#446,.T.);
#251=ORIENTED_EDGE('',*,*,#447,.T.);
#252=ORIENTED_EDGE('',*,*,#448,.T.);
#253=ORIENTED_EDGE('',*,*,#449,.T.);
#254=ORIENTED_EDGE('',*,*,#450,.T.);
#255=ORIENTED_EDGE('',*,*,#451,.T.);
#256=ORIENTED_EDGE('',*,*,#452,.T.);
#257=ORIENTED_EDGE('',*,*,#453,.T.);
#258=ORIENTED_EDGE('',*,*,#443,.T.);
#259=ORIENTED_EDGE('',*,*,#399,.T.);
#260=ORIENTED_EDGE('',*,*,#430,.T.);
#261=ORIENTED_EDGE('',*,*,#416,.F.);
#262=ORIENTED_EDGE('',*,*,#363,.T.);
#263=ORIENTED_EDGE('',*,*,#419,.F.);
#264=ORIENTED_EDGE('',*,*,#364,.T.);
#265=ORIENTED_EDGE('',*,*,#420,.F.);
#266=ORIENTED_EDGE('',*,*,#365,.F.);
#267=ORIENTED_EDGE('',*,*,#414,.T.);
#268=ORIENTED_EDGE('',*,*,#358,.F.);
#269=ORIENTED_EDGE('',*,*,#413,.T.);
#270=ORIENTED_EDGE('',*,*,#366,.T.);
#271=ORIENTED_EDGE('',*,*,#421,.F.);
#272=ORIENTED_EDGE('',*,*,#367,.T.);
#273=ORIENTED_EDGE('',*,*,#422,.F.);
#274=ORIENTED_EDGE('',*,*,#368,.T.);
#275=ORIENTED_EDGE('',*,*,#423,.F.);
#276=ORIENTED_EDGE('',*,*,#369,.F.);
#277=ORIENTED_EDGE('',*,*,#412,.T.);
#278=ORIENTED_EDGE('',*,*,#357,.T.);
#279=ORIENTED_EDGE('',*,*,#424,.F.);
#280=ORIENTED_EDGE('',*,*,#401,.T.);
#281=ORIENTED_EDGE('',*,*,#381,.T.);
#282=ORIENTED_EDGE('',*,*,#402,.T.);
#283=ORIENTED_EDGE('',*,*,#382,.T.);
#284=ORIENTED_EDGE('',*,*,#403,.F.);
#285=ORIENTED_EDGE('',*,*,#376,.F.);
#286=ORIENTED_EDGE('',*,*,#396,.F.);
#287=ORIENTED_EDGE('',*,*,#375,.F.);
#288=ORIENTED_EDGE('',*,*,#404,.T.);
#289=ORIENTED_EDGE('',*,*,#383,.T.);
#290=ORIENTED_EDGE('',*,*,#405,.T.);
#291=ORIENTED_EDGE('',*,*,#384,.T.);
#292=ORIENTED_EDGE('',*,*,#406,.T.);
#293=ORIENTED_EDGE('',*,*,#385,.T.);
#294=ORIENTED_EDGE('',*,*,#407,.F.);
#295=ORIENTED_EDGE('',*,*,#374,.F.);
#296=ORIENTED_EDGE('',*,*,#395,.T.);
#297=ORIENTED_EDGE('',*,*,#386,.T.);
#298=ORIENTED_EDGE('',*,*,#454,.T.);
#299=ORIENTED_EDGE('',*,*,#435,.T.);
#300=ORIENTED_EDGE('',*,*,#455,.F.);
#301=ORIENTED_EDGE('',*,*,#447,.F.);
#302=ORIENTED_EDGE('',*,*,#455,.T.);
#303=ORIENTED_EDGE('',*,*,#434,.T.);
#304=ORIENTED_EDGE('',*,*,#456,.F.);
#305=ORIENTED_EDGE('',*,*,#448,.F.);
#306=ORIENTED_EDGE('',*,*,#456,.T.);
#307=ORIENTED_EDGE('',*,*,#441,.T.);
#308=ORIENTED_EDGE('',*,*,#457,.F.);
#309=ORIENTED_EDGE('',*,*,#449,.F.);
#310=ORIENTED_EDGE('',*,*,#457,.T.);
#311=ORIENTED_EDGE('',*,*,#440,.T.);
#312=ORIENTED_EDGE('',*,*,#458,.F.);
#313=ORIENTED_EDGE('',*,*,#450,.F.);
#314=ORIENTED_EDGE('',*,*,#458,.T.);
#315=ORIENTED_EDGE('',*,*,#439,.T.);
#316=ORIENTED_EDGE('',*,*,#459,.F.);
#317=ORIENTED_EDGE('',*,*,#451,.F.);
#318=ORIENTED_EDGE('',*,*,#459,.T.);
#319=ORIENTED_EDGE('',*,*,#438,.T.);
#320=ORIENTED_EDGE('',*,*,#460,.F.);
#321=ORIENTED_EDGE('',*,*,#452,.F.);
#322=ORIENTED_EDGE('',*,*,#460,.T.);
#323=ORIENTED_EDGE('',*,*,#437,.T.);
#324=ORIENTED_EDGE('',*,*,#461,.F.);
#325=ORIENTED_EDGE('',*,*,#453,.F.);
#326=ORIENTED_EDGE('',*,*,#461,.T.);
#327=ORIENTED_EDGE('',*,*,#436,.T.);
#328=ORIENTED_EDGE('',*,*,#454,.F.);
#329=ORIENTED_EDGE('',*,*,#446,.F.);
#330=ORIENTED_EDGE('',*,*,#356,.F.);
#331=ORIENTED_EDGE('',*,*,#425,.T.);
#332=ORIENTED_EDGE('',*,*,#355,.F.);
#333=ORIENTED_EDGE('',*,*,#426,.T.);
#334=ORIENTED_EDGE('',*,*,#370,.T.);
#335=ORIENTED_EDGE('',*,*,#427,.F.);
#336=ORIENTED_EDGE('',*,*,#371,.T.);
#337=ORIENTED_EDGE('',*,*,#411,.F.);
#338=ORIENTED_EDGE('',*,*,#354,.F.);
#339=ORIENTED_EDGE('',*,*,#428,.T.);
#340=ORIENTED_EDGE('',*,*,#372,.T.);
#341=ORIENTED_EDGE('',*,*,#429,.F.);
#342=ORIENTED_EDGE('',*,*,#394,.F.);
#343=ORIENTED_EDGE('',*,*,#387,.F.);
#344=ORIENTED_EDGE('',*,*,#393,.F.);
#345=ORIENTED_EDGE('',*,*,#388,.F.);
#346=ORIENTED_EDGE('',*,*,#408,.T.);
#347=ORIENTED_EDGE('',*,*,#389,.T.);
#348=ORIENTED_EDGE('',*,*,#409,.T.);
#349=ORIENTED_EDGE('',*,*,#373,.T.);
#350=ORIENTED_EDGE('',*,*,#392,.F.);
#351=ORIENTED_EDGE('',*,*,#390,.F.);
#352=ORIENTED_EDGE('',*,*,#410,.T.);
#353=ORIENTED_EDGE('',*,*,#391,.T.);
#354=EDGE_CURVE('',#462,#462,#554,.T.);
#355=EDGE_CURVE('',#463,#463,#555,.T.);
#356=EDGE_CURVE('',#464,#464,#556,.T.);
#357=EDGE_CURVE('',#465,#465,#557,.T.);
#358=EDGE_CURVE('',#466,#466,#558,.T.);
#359=EDGE_CURVE('',#467,#468,#42,.T.);
#360=EDGE_CURVE('',#467,#469,#43,.T.);
#361=EDGE_CURVE('',#469,#470,#44,.T.);
#362=EDGE_CURVE('',#468,#470,#45,.T.);
#363=EDGE_CURVE('',#471,#471,#559,.T.);
#364=EDGE_CURVE('',#472,#472,#560,.T.);
#365=EDGE_CURVE('',#473,#473,#561,.T.);
#366=EDGE_CURVE('',#474,#474,#562,.T.);
#367=EDGE_CURVE('',#475,#475,#563,.T.);
#368=EDGE_CURVE('',#476,#476,#564,.T.);
#369=EDGE_CURVE('',#477,#477,#565,.T.);
#370=EDGE_CURVE('',#478,#478,#566,.T.);
#371=EDGE_CURVE('',#479,#479,#567,.T.);
#372=EDGE_CURVE('',#480,#480,#568,.T.);
#373=EDGE_CURVE('',#481,#481,#569,.F.);
#374=EDGE_CURVE('',#482,#482,#570,.T.);
#375=EDGE_CURVE('',#483,#483,#571,.T.);
#376=EDGE_CURVE('',#484,#484,#572,.T.);
#377=EDGE_CURVE('',#485,#486,#46,.T.);
#378=EDGE_CURVE('',#486,#487,#47,.T.);
#379=EDGE_CURVE('',#488,#487,#48,.T.);
#380=EDGE_CURVE('',#485,#488,#49,.T.);
#381=EDGE_CURVE('',#489,#489,#573,.F.);
#382=EDGE_CURVE('',#490,#490,#574,.F.);
#383=EDGE_CURVE('',#491,#491,#575,.F.);
#384=EDGE_CURVE('',#492,#492,#576,.F.);
#385=EDGE_CURVE('',#493,#493,#577,.F.);
#386=EDGE_CURVE('',#494,#494,#578,.F.);
#387=EDGE_CURVE('',#495,#495,#579,.T.);
#388=EDGE_CURVE('',#496,#496,#580,.T.);
#389=EDGE_CURVE('',#497,#497,#581,.F.);
#390=EDGE_CURVE('',#498,#498,#582,.T.);
#391=EDGE_CURVE('',#499,#499,#583,.F.);
#392=EDGE_CURVE('',#500,#500,#584,.F.);
#393=EDGE_CURVE('',#501,#501,#585,.F.);
#394=EDGE_CURVE('',#502,#502,#586,.F.);
#395=EDGE_CURVE('',#503,#503,#587,.T.);
#396=EDGE_CURVE('',#504,#504,#588,.F.);
#397=EDGE_CURVE('',#505,#506,#50,.T.);
#398=EDGE_CURVE('',#507,#506,#51,.T.);
#399=EDGE_CURVE('',#508,#507,#52,.T.);
#400=EDGE_CURVE('',#505,#508,#53,.T.);
#401=EDGE_CURVE('',#509,#509,#589,.T.);
#402=EDGE_CURVE('',#510,#510,#590,.T.);
#403=EDGE_CURVE('',#511,#511,#591,.F.);
#404=EDGE_CURVE('',#512,#512,#592,.T.);
#405=EDGE_CURVE('',#513,#513,#593,.T.);
#406=EDGE_CURVE('',#514,#514,#594,.T.);
#407=EDGE_CURVE('',#515,#515,#595,.F.);
#408=EDGE_CURVE('',#516,#516,#596,.T.);
#409=EDGE_CURVE('',#517,#517,#597,.T.);
#410=EDGE_CURVE('',#518,#518,#598,.T.);
#411=EDGE_CURVE('',#519,#519,#599,.T.);
#412=EDGE_CURVE('',#520,#520,#600,.F.);
#413=EDGE_CURVE('',#521,#521,#601,.F.);
#414=EDGE_CURVE('',#522,#522,#602,.F.);
#415=EDGE_CURVE('',#523,#524,#54,.T.);
#416=EDGE_CURVE('',#524,#525,#55,.T.);
#417=EDGE_CURVE('',#525,#526,#56,.T.);
#418=EDGE_CURVE('',#523,#526,#57,.T.);
#419=EDGE_CURVE('',#527,#527,#603,.T.);
#420=EDGE_CURVE('',#528,#528,#604,.T.);
#421=EDGE_CURVE('',#529,#529,#605,.T.);
#422=EDGE_CURVE('',#530,#530,#606,.T.);
#423=EDGE_CURVE('',#531,#531,#607,.T.);
#424=EDGE_CURVE('',#532,#532,#608,.T.);
#425=EDGE_CURVE('',#533,#533,#609,.F.);
#426=EDGE_CURVE('',#534,#534,#610,.F.);
#427=EDGE_CURVE('',#535,#535,#611,.T.);
#428=EDGE_CURVE('',#536,#536,#612,.F.);
#429=EDGE_CURVE('',#537,#537,#613,.T.);
#430=EDGE_CURVE('',#507,#525,#58,.T.);
#431=EDGE_CURVE('',#506,#526,#59,.T.);
#432=EDGE_CURVE('',#467,#485,#60,.T.);
#433=EDGE_CURVE('',#468,#486,#61,.T.);
#434=EDGE_CURVE('',#538,#539,#62,.T.);
#435=EDGE_CURVE('',#540,#538,#63,.T.);
#436=EDGE_CURVE('',#541,#540,#64,.T.);
#437=EDGE_CURVE('',#542,#541,#65,.T.);
#438=EDGE_CURVE('',#543,#542,#66,.T.);
#439=EDGE_CURVE('',#544,#543,#67,.T.);
#440=EDGE_CURVE('',#545,#544,#68,.T.);
#441=EDGE_CURVE('',#539,#545,#69,.T.);
#442=EDGE_CURVE('',#469,#488,#70,.T.);
#443=EDGE_CURVE('',#524,#508,#71,.T.);
#444=EDGE_CURVE('',#523,#505,#72,.T.);
#445=EDGE_CURVE('',#470,#487,#73,.T.);
#446=EDGE_CURVE('',#546,#547,#74,.T.);
#447=EDGE_CURVE('',#547,#548,#75,.T.);
#448=EDGE_CURVE('',#548,#549,#76,.T.);
#449=EDGE_CURVE('',#549,#550,#77,.T.);
#450=EDGE_CURVE('',#550,#551,#78,.T.);
#451=EDGE_CURVE('',#551,#552,#79,.T.);
#452=EDGE_CURVE('',#552,#553,#80,.T.);
#453=EDGE_CURVE('',#553,#546,#81,.T.);
#454=EDGE_CURVE('',#547,#540,#82,.T.);
#455=EDGE_CURVE('',#548,#538,#83,.T.);
#456=EDGE_CURVE('',#549,#539,#84,.T.);
#457=EDGE_CURVE('',#550,#545,#85,.T.);
#458=EDGE_CURVE('',#551,#544,#86,.T.);
#459=EDGE_CURVE('',#552,#543,#87,.T.);
#460=EDGE_CURVE('',#553,#542,#88,.T.);
#461=EDGE_CURVE('',#546,#541,#89,.T.);
#462=VERTEX_POINT('',#1354);
#463=VERTEX_POINT('',#1356);
#464=VERTEX_POINT('',#1358);
#465=VERTEX_POINT('',#1360);
#466=VERTEX_POINT('',#1362);
#467=VERTEX_POINT('',#1364);
#468=VERTEX_POINT('',#1365);
#469=VERTEX_POINT('',#1367);
#470=VERTEX_POINT('',#1369);
#471=VERTEX_POINT('',#1372);
#472=VERTEX_POINT('',#1374);
#473=VERTEX_POINT('',#1376);
#474=VERTEX_POINT('',#1378);
#475=VERTEX_POINT('',#1380);
#476=VERTEX_POINT('',#1382);
#477=VERTEX_POINT('',#1384);
#478=VERTEX_POINT('',#1386);
#479=VERTEX_POINT('',#1388);
#480=VERTEX_POINT('',#1390);
#481=VERTEX_POINT('',#1393);
#482=VERTEX_POINT('',#1395);
#483=VERTEX_POINT('',#1397);
#484=VERTEX_POINT('',#1399);
#485=VERTEX_POINT('',#1401);
#486=VERTEX_POINT('',#1402);
#487=VERTEX_POINT('',#1404);
#488=VERTEX_POINT('',#1406);
#489=VERTEX_POINT('',#1409);
#490=VERTEX_POINT('',#1411);
#491=VERTEX_POINT('',#1413);
#492=VERTEX_POINT('',#1415);
#493=VERTEX_POINT('',#1417);
#494=VERTEX_POINT('',#1419);
#495=VERTEX_POINT('',#1421);
#496=VERTEX_POINT('',#1423);
#497=VERTEX_POINT('',#1425);
#498=VERTEX_POINT('',#1427);
#499=VERTEX_POINT('',#1429);
#500=VERTEX_POINT('',#1432);
#501=VERTEX_POINT('',#1434);
#502=VERTEX_POINT('',#1436);
#503=VERTEX_POINT('',#1438);
#504=VERTEX_POINT('',#1440);
#505=VERTEX_POINT('',#1442);
#506=VERTEX_POINT('',#1443);
#507=VERTEX_POINT('',#1445);
#508=VERTEX_POINT('',#1447);
#509=VERTEX_POINT('',#1450);
#510=VERTEX_POINT('',#1452);
#511=VERTEX_POINT('',#1454);
#512=VERTEX_POINT('',#1456);
#513=VERTEX_POINT('',#1458);
#514=VERTEX_POINT('',#1460);
#515=VERTEX_POINT('',#1462);
#516=VERTEX_POINT('',#1464);
#517=VERTEX_POINT('',#1466);
#518=VERTEX_POINT('',#1468);
#519=VERTEX_POINT('',#1471);
#520=VERTEX_POINT('',#1473);
#521=VERTEX_POINT('',#1475);
#522=VERTEX_POINT('',#1477);
#523=VERTEX_POINT('',#1479);
#524=VERTEX_POINT('',#1480);
#525=VERTEX_POINT('',#1482);
#526=VERTEX_POINT('',#1484);
#527=VERTEX_POINT('',#1487);
#528=VERTEX_POINT('',#1489);
#529=VERTEX_POINT('',#1491);
#530=VERTEX_POINT('',#1493);
#531=VERTEX_POINT('',#1495);
#532=VERTEX_POINT('',#1497);
#533=VERTEX_POINT('',#1499);
#534=VERTEX_POINT('',#1501);
#535=VERTEX_POINT('',#1503);
#536=VERTEX_POINT('',#1505);
#537=VERTEX_POINT('',#1507);
#538=VERTEX_POINT('',#1515);
#539=VERTEX_POINT('',#1516);
#540=VERTEX_POINT('',#1518);
#541=VERTEX_POINT('',#1520);
#542=VERTEX_POINT('',#1522);
#543=VERTEX_POINT('',#1524);
#544=VERTEX_POINT('',#1526);
#545=VERTEX_POINT('',#1528);
#546=VERTEX_POINT('',#1539);
#547=VERTEX_POINT('',#1540);
#548=VERTEX_POINT('',#1542);
#549=VERTEX_POINT('',#1544);
#550=VERTEX_POINT('',#1546);
#551=VERTEX_POINT('',#1548);
#552=VERTEX_POINT('',#1550);
#553=VERTEX_POINT('',#1552);
#554=CIRCLE('',#978,0.0024892);
#555=CIRCLE('',#979,0.0024892);
#556=CIRCLE('',#980,0.0024892);
#557=CIRCLE('',#981,0.0024892);
#558=CIRCLE('',#982,0.0024892);
#559=CIRCLE('',#983,0.009525);
#560=CIRCLE('',#984,0.0024892);
#561=CIRCLE('',#985,0.0024892);
#562=CIRCLE('',#986,0.0024892);
#563=CIRCLE('',#987,0.0142875);
#564=CIRCLE('',#988,0.0142875);
#565=CIRCLE('',#989,0.0024892);
#566=CIRCLE('',#990,0.0024892);
#567=CIRCLE('',#991,0.0024892);
#568=CIRCLE('',#992,0.0024892);
#569=CIRCLE('',#994,0.0024892);
#570=CIRCLE('',#995,0.0024892);
#571=CIRCLE('',#996,0.0024892);
#572=CIRCLE('',#997,0.0024892);
#573=CIRCLE('',#998,0.009525);
#574=CIRCLE('',#999,0.0024892);
#575=CIRCLE('',#1000,0.0024892);
#576=CIRCLE('',#1001,0.0142875);
#577=CIRCLE('',#1002,0.0142875);
#578=CIRCLE('',#1003,0.0024892);
#579=CIRCLE('',#1004,0.0024892);
#580=CIRCLE('',#1005,0.0024892);
#581=CIRCLE('',#1006,0.0024892);
#582=CIRCLE('',#1007,0.0024892);
#583=CIRCLE('',#1008,0.0024892);
#584=CIRCLE('',#1010,0.0024892);
#585=CIRCLE('',#1011,0.0024892);
#586=CIRCLE('',#1012,0.0024892);
#587=CIRCLE('',#1013,0.0024892);
#588=CIRCLE('',#1014,0.0024892);
#589=CIRCLE('',#1015,0.009525);
#590=CIRCLE('',#1016,0.0024892);
#591=CIRCLE('',#1017,0.0024892);
#592=CIRCLE('',#1018,0.0024892);
#593=CIRCLE('',#1019,0.0142875);
#594=CIRCLE('',#1020,0.0142875);
#595=CIRCLE('',#1021,0.0024892);
#596=CIRCLE('',#1022,0.0024892);
#597=CIRCLE('',#1023,0.0024892);
#598=CIRCLE('',#1024,0.0024892);
#599=CIRCLE('',#1026,0.0024892);
#600=CIRCLE('',#1027,0.0024892);
#601=CIRCLE('',#1028,0.0024892);
#602=CIRCLE('',#1029,0.0024892);
#603=CIRCLE('',#1030,0.009525);
#604=CIRCLE('',#1031,0.0024892);
#605=CIRCLE('',#1032,0.0024892);
#606=CIRCLE('',#1033,0.0142875);
#607=CIRCLE('',#1034,0.0142875);
#608=CIRCLE('',#1035,0.0024892);
#609=CIRCLE('',#1036,0.0024892);
#610=CIRCLE('',#1037,0.0024892);
#611=CIRCLE('',#1038,0.0024892);
#612=CIRCLE('',#1039,0.0024892);
#613=CIRCLE('',#1040,0.0024892);
#614=EDGE_LOOP('',(#138));
#615=EDGE_LOOP('',(#139));
#616=EDGE_LOOP('',(#140));
#617=EDGE_LOOP('',(#141));
#618=EDGE_LOOP('',(#142));
#619=EDGE_LOOP('',(#143,#144,#145,#146));
#620=EDGE_LOOP('',(#147));
#621=EDGE_LOOP('',(#148));
#622=EDGE_LOOP('',(#149));
#623=EDGE_LOOP('',(#150));
#624=EDGE_LOOP('',(#151));
#625=EDGE_LOOP('',(#152));
#626=EDGE_LOOP('',(#153));
#627=EDGE_LOOP('',(#154));
#628=EDGE_LOOP('',(#155));
#629=EDGE_LOOP('',(#156));
#630=EDGE_LOOP('',(#157));
#631=EDGE_LOOP('',(#158));
#632=EDGE_LOOP('',(#159));
#633=EDGE_LOOP('',(#160));
#634=EDGE_LOOP('',(#161,#162,#163,#164));
#635=EDGE_LOOP('',(#165));
#636=EDGE_LOOP('',(#166));
#637=EDGE_LOOP('',(#167));
#638=EDGE_LOOP('',(#168));
#639=EDGE_LOOP('',(#169));
#640=EDGE_LOOP('',(#170));
#641=EDGE_LOOP('',(#171));
#642=EDGE_LOOP('',(#172));
#643=EDGE_LOOP('',(#173));
#644=EDGE_LOOP('',(#174));
#645=EDGE_LOOP('',(#175));
#646=EDGE_LOOP('',(#176));
#647=EDGE_LOOP('',(#177));
#648=EDGE_LOOP('',(#178));
#649=EDGE_LOOP('',(#179));
#650=EDGE_LOOP('',(#180));
#651=EDGE_LOOP('',(#181,#182,#183,#184));
#652=EDGE_LOOP('',(#185));
#653=EDGE_LOOP('',(#186));
#654=EDGE_LOOP('',(#187));
#655=EDGE_LOOP('',(#188));
#656=EDGE_LOOP('',(#189));
#657=EDGE_LOOP('',(#190));
#658=EDGE_LOOP('',(#191));
#659=EDGE_LOOP('',(#192));
#660=EDGE_LOOP('',(#193));
#661=EDGE_LOOP('',(#194));
#662=EDGE_LOOP('',(#195));
#663=EDGE_LOOP('',(#196));
#664=EDGE_LOOP('',(#197));
#665=EDGE_LOOP('',(#198));
#666=EDGE_LOOP('',(#199,#200,#201,#202));
#667=EDGE_LOOP('',(#203));
#668=EDGE_LOOP('',(#204));
#669=EDGE_LOOP('',(#205));
#670=EDGE_LOOP('',(#206));
#671=EDGE_LOOP('',(#207));
#672=EDGE_LOOP('',(#208));
#673=EDGE_LOOP('',(#209));
#674=EDGE_LOOP('',(#210));
#675=EDGE_LOOP('',(#211));
#676=EDGE_LOOP('',(#212));
#677=EDGE_LOOP('',(#213));
#678=EDGE_LOOP('',(#214,#215,#216,#217));
#679=EDGE_LOOP('',(#218,#219,#220,#221));
#680=EDGE_LOOP('',(#222,#223,#224,#225,#226,#227,#228,#229));
#681=EDGE_LOOP('',(#230,#231,#232,#233));
#682=EDGE_LOOP('',(#234,#235,#236,#237));
#683=EDGE_LOOP('',(#238,#239,#240,#241));
#684=EDGE_LOOP('',(#242,#243,#244,#245));
#685=EDGE_LOOP('',(#246,#247,#248,#249));
#686=EDGE_LOOP('',(#250,#251,#252,#253,#254,#255,#256,#257));
#687=EDGE_LOOP('',(#258,#259,#260,#261));
#688=EDGE_LOOP('',(#262));
#689=EDGE_LOOP('',(#263));
#690=EDGE_LOOP('',(#264));
#691=EDGE_LOOP('',(#265));
#692=EDGE_LOOP('',(#266));
#693=EDGE_LOOP('',(#267));
#694=EDGE_LOOP('',(#268));
#695=EDGE_LOOP('',(#269));
#696=EDGE_LOOP('',(#270));
#697=EDGE_LOOP('',(#271));
#698=EDGE_LOOP('',(#272));
#699=EDGE_LOOP('',(#273));
#700=EDGE_LOOP('',(#274));
#701=EDGE_LOOP('',(#275));
#702=EDGE_LOOP('',(#276));
#703=EDGE_LOOP('',(#277));
#704=EDGE_LOOP('',(#278));
#705=EDGE_LOOP('',(#279));
#706=EDGE_LOOP('',(#280));
#707=EDGE_LOOP('',(#281));
#708=EDGE_LOOP('',(#282));
#709=EDGE_LOOP('',(#283));
#710=EDGE_LOOP('',(#284));
#711=EDGE_LOOP('',(#285));
#712=EDGE_LOOP('',(#286));
#713=EDGE_LOOP('',(#287));
#714=EDGE_LOOP('',(#288));
#715=EDGE_LOOP('',(#289));
#716=EDGE_LOOP('',(#290));
#717=EDGE_LOOP('',(#291));
#718=EDGE_LOOP('',(#292));
#719=EDGE_LOOP('',(#293));
#720=EDGE_LOOP('',(#294));
#721=EDGE_LOOP('',(#295));
#722=EDGE_LOOP('',(#296));
#723=EDGE_LOOP('',(#297));
#724=EDGE_LOOP('',(#298,#299,#300,#301));
#725=EDGE_LOOP('',(#302,#303,#304,#305));
#726=EDGE_LOOP('',(#306,#307,#308,#309));
#727=EDGE_LOOP('',(#310,#311,#312,#313));
#728=EDGE_LOOP('',(#314,#315,#316,#317));
#729=EDGE_LOOP('',(#318,#319,#320,#321));
#730=EDGE_LOOP('',(#322,#323,#324,#325));
#731=EDGE_LOOP('',(#326,#327,#328,#329));
#732=EDGE_LOOP('',(#330));
#733=EDGE_LOOP('',(#331));
#734=EDGE_LOOP('',(#332));
#735=EDGE_LOOP('',(#333));
#736=EDGE_LOOP('',(#334));
#737=EDGE_LOOP('',(#335));
#738=EDGE_LOOP('',(#336));
#739=EDGE_LOOP('',(#337));
#740=EDGE_LOOP('',(#338));
#741=EDGE_LOOP('',(#339));
#742=EDGE_LOOP('',(#340));
#743=EDGE_LOOP('',(#341));
#744=EDGE_LOOP('',(#342));
#745=EDGE_LOOP('',(#343));
#746=EDGE_LOOP('',(#344));
#747=EDGE_LOOP('',(#345));
#748=EDGE_LOOP('',(#346));
#749=EDGE_LOOP('',(#347));
#750=EDGE_LOOP('',(#348));
#751=EDGE_LOOP('',(#349));
#752=EDGE_LOOP('',(#350));
#753=EDGE_LOOP('',(#351));
#754=EDGE_LOOP('',(#352));
#755=EDGE_LOOP('',(#353));
#756=FACE_BOUND('',#614,.T.);
#757=FACE_BOUND('',#615,.T.);
#758=FACE_BOUND('',#616,.T.);
#759=FACE_BOUND('',#617,.T.);
#760=FACE_BOUND('',#618,.T.);
#761=FACE_BOUND('',#619,.T.);
#762=FACE_BOUND('',#620,.T.);
#763=FACE_BOUND('',#621,.T.);
#764=FACE_BOUND('',#622,.T.);
#765=FACE_BOUND('',#623,.T.);
#766=FACE_BOUND('',#624,.T.);
#767=FACE_BOUND('',#625,.T.);
#768=FACE_BOUND('',#626,.T.);
#769=FACE_BOUND('',#627,.T.);
#770=FACE_BOUND('',#628,.T.);
#771=FACE_BOUND('',#629,.T.);
#772=FACE_BOUND('',#630,.T.);
#773=FACE_BOUND('',#631,.T.);
#774=FACE_BOUND('',#632,.T.);
#775=FACE_BOUND('',#633,.T.);
#776=FACE_BOUND('',#634,.T.);
#777=FACE_BOUND('',#635,.T.);
#778=FACE_BOUND('',#636,.T.);
#779=FACE_BOUND('',#637,.T.);
#780=FACE_BOUND('',#638,.T.);
#781=FACE_BOUND('',#639,.T.);
#782=FACE_BOUND('',#640,.T.);
#783=FACE_BOUND('',#641,.T.);
#784=FACE_BOUND('',#642,.T.);
#785=FACE_BOUND('',#643,.T.);
#786=FACE_BOUND('',#644,.T.);
#787=FACE_BOUND('',#645,.T.);
#788=FACE_BOUND('',#646,.T.);
#789=FACE_BOUND('',#647,.T.);
#790=FACE_BOUND('',#648,.T.);
#791=FACE_BOUND('',#649,.T.);
#792=FACE_BOUND('',#650,.T.);
#793=FACE_BOUND('',#651,.T.);
#794=FACE_BOUND('',#652,.T.);
#795=FACE_BOUND('',#653,.T.);
#796=FACE_BOUND('',#654,.T.);
#797=FACE_BOUND('',#655,.T.);
#798=FACE_BOUND('',#656,.T.);
#799=FACE_BOUND('',#657,.T.);
#800=FACE_BOUND('',#658,.T.);
#801=FACE_BOUND('',#659,.T.);
#802=FACE_BOUND('',#660,.T.);
#803=FACE_BOUND('',#661,.T.);
#804=FACE_BOUND('',#662,.T.);
#805=FACE_BOUND('',#663,.T.);
#806=FACE_BOUND('',#664,.T.);
#807=FACE_BOUND('',#665,.T.);
#808=FACE_BOUND('',#666,.T.);
#809=FACE_BOUND('',#667,.T.);
#810=FACE_BOUND('',#668,.T.);
#811=FACE_BOUND('',#669,.T.);
#812=FACE_BOUND('',#670,.T.);
#813=FACE_BOUND('',#671,.T.);
#814=FACE_BOUND('',#672,.T.);
#815=FACE_BOUND('',#673,.T.);
#816=FACE_BOUND('',#674,.T.);
#817=FACE_BOUND('',#675,.T.);
#818=FACE_BOUND('',#676,.T.);
#819=FACE_BOUND('',#677,.T.);
#820=FACE_BOUND('',#678,.T.);
#821=FACE_BOUND('',#679,.T.);
#822=FACE_BOUND('',#680,.T.);
#823=FACE_BOUND('',#681,.T.);
#824=FACE_BOUND('',#682,.T.);
#825=FACE_BOUND('',#683,.T.);
#826=FACE_BOUND('',#684,.T.);
#827=FACE_BOUND('',#685,.T.);
#828=FACE_BOUND('',#686,.T.);
#829=FACE_BOUND('',#687,.T.);
#830=FACE_BOUND('',#688,.T.);
#831=FACE_BOUND('',#689,.T.);
#832=FACE_BOUND('',#690,.T.);
#833=FACE_BOUND('',#691,.T.);
#834=FACE_BOUND('',#692,.T.);
#835=FACE_BOUND('',#693,.T.);
#836=FACE_BOUND('',#694,.T.);
#837=FACE_BOUND('',#695,.T.);
#838=FACE_BOUND('',#696,.T.);
#839=FACE_BOUND('',#697,.T.);
#840=FACE_BOUND('',#698,.T.);
#841=FACE_BOUND('',#699,.T.);
#842=FACE_BOUND('',#700,.T.);
#843=FACE_BOUND('',#701,.T.);
#844=FACE_BOUND('',#702,.T.);
#845=FACE_BOUND('',#703,.T.);
#846=FACE_BOUND('',#704,.T.);
#847=FACE_BOUND('',#705,.T.);
#848=FACE_BOUND('',#706,.T.);
#849=FACE_BOUND('',#707,.T.);
#850=FACE_BOUND('',#708,.T.);
#851=FACE_BOUND('',#709,.T.);
#852=FACE_BOUND('',#710,.T.);
#853=FACE_BOUND('',#711,.T.);
#854=FACE_BOUND('',#712,.T.);
#855=FACE_BOUND('',#713,.T.);
#856=FACE_BOUND('',#714,.T.);
#857=FACE_BOUND('',#715,.T.);
#858=FACE_BOUND('',#716,.T.);
#859=FACE_BOUND('',#717,.T.);
#860=FACE_BOUND('',#718,.T.);
#861=FACE_BOUND('',#719,.T.);
#862=FACE_BOUND('',#720,.T.);
#863=FACE_BOUND('',#721,.T.);
#864=FACE_BOUND('',#722,.T.);
#865=FACE_BOUND('',#723,.T.);
#866=FACE_BOUND('',#724,.T.);
#867=FACE_BOUND('',#725,.T.);
#868=FACE_BOUND('',#726,.T.);
#869=FACE_BOUND('',#727,.T.);
#870=FACE_BOUND('',#728,.T.);
#871=FACE_BOUND('',#729,.T.);
#872=FACE_BOUND('',#730,.T.);
#873=FACE_BOUND('',#731,.T.);
#874=FACE_BOUND('',#732,.T.);
#875=FACE_BOUND('',#733,.T.);
#876=FACE_BOUND('',#734,.T.);
#877=FACE_BOUND('',#735,.T.);
#878=FACE_BOUND('',#736,.T.);
#879=FACE_BOUND('',#737,.T.);
#880=FACE_BOUND('',#738,.T.);
#881=FACE_BOUND('',#739,.T.);
#882=FACE_BOUND('',#740,.T.);
#883=FACE_BOUND('',#741,.T.);
#884=FACE_BOUND('',#742,.T.);
#885=FACE_BOUND('',#743,.T.);
#886=FACE_BOUND('',#744,.T.);
#887=FACE_BOUND('',#745,.T.);
#888=FACE_BOUND('',#746,.T.);
#889=FACE_BOUND('',#747,.T.);
#890=FACE_BOUND('',#748,.T.);
#891=FACE_BOUND('',#749,.T.);
#892=FACE_BOUND('',#750,.T.);
#893=FACE_BOUND('',#751,.T.);
#894=FACE_BOUND('',#752,.T.);
#895=FACE_BOUND('',#753,.T.);
#896=FACE_BOUND('',#754,.T.);
#897=FACE_BOUND('',#755,.T.);
#898=PLANE('',#977);
#899=PLANE('',#993);
#900=PLANE('',#1009);
#901=PLANE('',#1025);
#902=PLANE('',#1041);
#903=PLANE('',#1042);
#904=PLANE('',#1043);
#905=PLANE('',#1044);
#906=PLANE('',#1045);
#907=PLANE('',#1046);
#908=PLANE('',#1065);
#909=PLANE('',#1066);
#910=PLANE('',#1067);
#911=PLANE('',#1068);
#912=PLANE('',#1069);
#913=PLANE('',#1070);
#914=PLANE('',#1071);
#915=PLANE('',#1072);
#916=ADVANCED_FACE('',(#756,#757,#758,#759,#760,#761,#762,#763,#764,#765,
#766,#767,#768,#769,#770,#771),#898,.T.);
#917=ADVANCED_FACE('',(#772,#773,#774,#775,#776,#777,#778,#779,#780,#781,
#782,#783,#784,#785,#786,#787),#899,.F.);
#918=ADVANCED_FACE('',(#788,#789,#790,#791,#792,#793,#794,#795,#796,#797,
#798,#799,#800,#801,#802,#803),#900,.T.);
#919=ADVANCED_FACE('',(#804,#805,#806,#807,#808,#809,#810,#811,#812,#813,
#814,#815,#816,#817,#818,#819),#901,.F.);
#920=ADVANCED_FACE('',(#820,#821),#902,.T.);
#921=ADVANCED_FACE('',(#822,#823),#903,.F.);
#922=ADVANCED_FACE('',(#824,#825),#904,.F.);
#923=ADVANCED_FACE('',(#826),#905,.T.);
#924=ADVANCED_FACE('',(#827),#906,.T.);
#925=ADVANCED_FACE('',(#828,#829),#907,.F.);
#926=ADVANCED_FACE('',(#830,#831),#12,.F.);
#927=ADVANCED_FACE('',(#832,#833),#13,.F.);
#928=ADVANCED_FACE('',(#834,#835),#14,.F.);
#929=ADVANCED_FACE('',(#836,#837),#15,.F.);
#930=ADVANCED_FACE('',(#838,#839),#16,.F.);
#931=ADVANCED_FACE('',(#840,#841),#17,.F.);
#932=ADVANCED_FACE('',(#842,#843),#18,.F.);
#933=ADVANCED_FACE('',(#844,#845),#19,.F.);
#934=ADVANCED_FACE('',(#846,#847),#20,.F.);
#935=ADVANCED_FACE('',(#848,#849),#21,.F.);
#936=ADVANCED_FACE('',(#850,#851),#22,.F.);
#937=ADVANCED_FACE('',(#852,#853),#23,.F.);
#938=ADVANCED_FACE('',(#854,#855),#24,.F.);
#939=ADVANCED_FACE('',(#856,#857),#25,.F.);
#940=ADVANCED_FACE('',(#858,#859),#26,.F.);
#941=ADVANCED_FACE('',(#860,#861),#27,.F.);
#942=ADVANCED_FACE('',(#862,#863),#28,.F.);
#943=ADVANCED_FACE('',(#864,#865),#29,.F.);
#944=ADVANCED_FACE('',(#866),#908,.F.);
#945=ADVANCED_FACE('',(#867),#909,.F.);
#946=ADVANCED_FACE('',(#868),#910,.F.);
#947=ADVANCED_FACE('',(#869),#911,.F.);
#948=ADVANCED_FACE('',(#870),#912,.F.);
#949=ADVANCED_FACE('',(#871),#913,.F.);
#950=ADVANCED_FACE('',(#872),#914,.F.);
#951=ADVANCED_FACE('',(#873),#915,.F.);
#952=ADVANCED_FACE('',(#874,#875),#30,.F.);
#953=ADVANCED_FACE('',(#876,#877),#31,.F.);
#954=ADVANCED_FACE('',(#878,#879),#32,.F.);
#955=ADVANCED_FACE('',(#880,#881),#33,.F.);
#956=ADVANCED_FACE('',(#882,#883),#34,.F.);
#957=ADVANCED_FACE('',(#884,#885),#35,.F.);
#958=ADVANCED_FACE('',(#886,#887),#36,.F.);
#959=ADVANCED_FACE('',(#888,#889),#37,.F.);
#960=ADVANCED_FACE('',(#890,#891),#38,.F.);
#961=ADVANCED_FACE('',(#892,#893),#39,.F.);
#962=ADVANCED_FACE('',(#894,#895),#40,.F.);
#963=ADVANCED_FACE('',(#896,#897),#41,.F.);
#964=CLOSED_SHELL('',(#916,#917,#918,#919,#920,#921,#922,#923,#924,#925,
#926,#927,#928,#929,#930,#931,#932,#933,#934,#935,#936,#937,#938,#939,#940,
#941,#942,#943,#944,#945,#946,#947,#948,#949,#950,#951,#952,#953,#954,#955,
#956,#957,#958,#959,#960,#961,#962,#963));
#965=STYLED_ITEM('',(#966),#973);
#966=PRESENTATION_STYLE_ASSIGNMENT((#967));
#967=SURFACE_STYLE_USAGE(.BOTH.,#968);
#968=SURFACE_SIDE_STYLE('',(#969));
#969=SURFACE_STYLE_FILL_AREA(#970);
#970=FILL_AREA_STYLE('',(#971));
#971=FILL_AREA_STYLE_COLOUR('',#972);
#972=COLOUR_RGB('',0.647058823529412,0.647058823529412,0.647058823529412);
#973=MANIFOLD_SOLID_BREP('25-201-A',#964);
#974=SHAPE_DEFINITION_REPRESENTATION(#1606,#975);
#975=SHAPE_REPRESENTATION('25-201-A',(#976),#1601);
#976=AXIS2_PLACEMENT_3D('',#1351,#1085,#1086);
#977=AXIS2_PLACEMENT_3D('',#1352,#1087,#1088);
#978=AXIS2_PLACEMENT_3D('',#1353,#1089,#1090);
#979=AXIS2_PLACEMENT_3D('',#1355,#1091,#1092);
#980=AXIS2_PLACEMENT_3D('',#1357,#1093,#1094);
#981=AXIS2_PLACEMENT_3D('',#1359,#1095,#1096);
#982=AXIS2_PLACEMENT_3D('',#1361,#1097,#1098);
#983=AXIS2_PLACEMENT_3D('',#1371,#1103,#1104);
#984=AXIS2_PLACEMENT_3D('',#1373,#1105,#1106);
#985=AXIS2_PLACEMENT_3D('',#1375,#1107,#1108);
#986=AXIS2_PLACEMENT_3D('',#1377,#1109,#1110);
#987=AXIS2_PLACEMENT_3D('',#1379,#1111,#1112);
#988=AXIS2_PLACEMENT_3D('',#1381,#1113,#1114);
#989=AXIS2_PLACEMENT_3D('',#1383,#1115,#1116);
#990=AXIS2_PLACEMENT_3D('',#1385,#1117,#1118);
#991=AXIS2_PLACEMENT_3D('',#1387,#1119,#1120);
#992=AXIS2_PLACEMENT_3D('',#1389,#1121,#1122);
#993=AXIS2_PLACEMENT_3D('',#1391,#1123,#1124);
#994=AXIS2_PLACEMENT_3D('',#1392,#1125,#1126);
#995=AXIS2_PLACEMENT_3D('',#1394,#1127,#1128);
#996=AXIS2_PLACEMENT_3D('',#1396,#1129,#1130);
#997=AXIS2_PLACEMENT_3D('',#1398,#1131,#1132);
#998=AXIS2_PLACEMENT_3D('',#1408,#1137,#1138);
#999=AXIS2_PLACEMENT_3D('',#1410,#1139,#1140);
#1000=AXIS2_PLACEMENT_3D('',#1412,#1141,#1142);
#1001=AXIS2_PLACEMENT_3D('',#1414,#1143,#1144);
#1002=AXIS2_PLACEMENT_3D('',#1416,#1145,#1146);
#1003=AXIS2_PLACEMENT_3D('',#1418,#1147,#1148);
#1004=AXIS2_PLACEMENT_3D('',#1420,#1149,#1150);
#1005=AXIS2_PLACEMENT_3D('',#1422,#1151,#1152);
#1006=AXIS2_PLACEMENT_3D('',#1424,#1153,#1154);
#1007=AXIS2_PLACEMENT_3D('',#1426,#1155,#1156);
#1008=AXIS2_PLACEMENT_3D('',#1428,#1157,#1158);
#1009=AXIS2_PLACEMENT_3D('',#1430,#1159,#1160);
#1010=AXIS2_PLACEMENT_3D('',#1431,#1161,#1162);
#1011=AXIS2_PLACEMENT_3D('',#1433,#1163,#1164);
#1012=AXIS2_PLACEMENT_3D('',#1435,#1165,#1166);
#1013=AXIS2_PLACEMENT_3D('',#1437,#1167,#1168);
#1014=AXIS2_PLACEMENT_3D('',#1439,#1169,#1170);
#1015=AXIS2_PLACEMENT_3D('',#1449,#1175,#1176);
#1016=AXIS2_PLACEMENT_3D('',#1451,#1177,#1178);
#1017=AXIS2_PLACEMENT_3D('',#1453,#1179,#1180);
#1018=AXIS2_PLACEMENT_3D('',#1455,#1181,#1182);
#1019=AXIS2_PLACEMENT_3D('',#1457,#1183,#1184);
#1020=AXIS2_PLACEMENT_3D('',#1459,#1185,#1186);
#1021=AXIS2_PLACEMENT_3D('',#1461,#1187,#1188);
#1022=AXIS2_PLACEMENT_3D('',#1463,#1189,#1190);
#1023=AXIS2_PLACEMENT_3D('',#1465,#1191,#1192);
#1024=AXIS2_PLACEMENT_3D('',#1467,#1193,#1194);
#1025=AXIS2_PLACEMENT_3D('',#1469,#1195,#1196);
#1026=AXIS2_PLACEMENT_3D('',#1470,#1197,#1198);
#1027=AXIS2_PLACEMENT_3D('',#1472,#1199,#1200);
#1028=AXIS2_PLACEMENT_3D('',#1474,#1201,#1202);
#1029=AXIS2_PLACEMENT_3D('',#1476,#1203,#1204);
#1030=AXIS2_PLACEMENT_3D('',#1486,#1209,#1210);
#1031=AXIS2_PLACEMENT_3D('',#1488,#1211,#1212);
#1032=AXIS2_PLACEMENT_3D('',#1490,#1213,#1214);
#1033=AXIS2_PLACEMENT_3D('',#1492,#1215,#1216);
#1034=AXIS2_PLACEMENT_3D('',#1494,#1217,#1218);
#1035=AXIS2_PLACEMENT_3D('',#1496,#1219,#1220);
#1036=AXIS2_PLACEMENT_3D('',#1498,#1221,#1222);
#1037=AXIS2_PLACEMENT_3D('',#1500,#1223,#1224);
#1038=AXIS2_PLACEMENT_3D('',#1502,#1225,#1226);
#1039=AXIS2_PLACEMENT_3D('',#1504,#1227,#1228);
#1040=AXIS2_PLACEMENT_3D('',#1506,#1229,#1230);
#1041=AXIS2_PLACEMENT_3D('',#1508,#1231,#1232);
#1042=AXIS2_PLACEMENT_3D('',#1513,#1237,#1238);
#1043=AXIS2_PLACEMENT_3D('',#1531,#1248,#1249);
#1044=AXIS2_PLACEMENT_3D('',#1535,#1253,#1254);
#1045=AXIS2_PLACEMENT_3D('',#1536,#1255,#1256);
#1046=AXIS2_PLACEMENT_3D('',#1537,#1257,#1258);
#1047=AXIS2_PLACEMENT_3D('',#1554,#1267,#1268);
#1048=AXIS2_PLACEMENT_3D('',#1555,#1269,#1270);
#1049=AXIS2_PLACEMENT_3D('',#1556,#1271,#1272);
#1050=AXIS2_PLACEMENT_3D('',#1557,#1273,#1274);
#1051=AXIS2_PLACEMENT_3D('',#1558,#1275,#1276);
#1052=AXIS2_PLACEMENT_3D('',#1559,#1277,#1278);
#1053=AXIS2_PLACEMENT_3D('',#1560,#1279,#1280);
#1054=AXIS2_PLACEMENT_3D('',#1561,#1281,#1282);
#1055=AXIS2_PLACEMENT_3D('',#1562,#1283,#1284);
#1056=AXIS2_PLACEMENT_3D('',#1563,#1285,#1286);
#1057=AXIS2_PLACEMENT_3D('',#1564,#1287,#1288);
#1058=AXIS2_PLACEMENT_3D('',#1565,#1289,#1290);
#1059=AXIS2_PLACEMENT_3D('',#1566,#1291,#1292);
#1060=AXIS2_PLACEMENT_3D('',#1567,#1293,#1294);
#1061=AXIS2_PLACEMENT_3D('',#1568,#1295,#1296);
#1062=AXIS2_PLACEMENT_3D('',#1569,#1297,#1298);
#1063=AXIS2_PLACEMENT_3D('',#1570,#1299,#1300);
#1064=AXIS2_PLACEMENT_3D('',#1571,#1301,#1302);
#1065=AXIS2_PLACEMENT_3D('',#1572,#1303,#1304);
#1066=AXIS2_PLACEMENT_3D('',#1575,#1307,#1308);
#1067=AXIS2_PLACEMENT_3D('',#1577,#1310,#1311);
#1068=AXIS2_PLACEMENT_3D('',#1579,#1313,#1314);
#1069=AXIS2_PLACEMENT_3D('',#1581,#1316,#1317);
#1070=AXIS2_PLACEMENT_3D('',#1583,#1319,#1320);
#1071=AXIS2_PLACEMENT_3D('',#1585,#1322,#1323);
#1072=AXIS2_PLACEMENT_3D('',#1587,#1325,#1326);
#1073=AXIS2_PLACEMENT_3D('',#1588,#1327,#1328);
#1074=AXIS2_PLACEMENT_3D('',#1589,#1329,#1330);
#1075=AXIS2_PLACEMENT_3D('',#1590,#1331,#1332);
#1076=AXIS2_PLACEMENT_3D('',#1591,#1333,#1334);
#1077=AXIS2_PLACEMENT_3D('',#1592,#1335,#1336);
#1078=AXIS2_PLACEMENT_3D('',#1593,#1337,#1338);
#1079=AXIS2_PLACEMENT_3D('',#1594,#1339,#1340);
#1080=AXIS2_PLACEMENT_3D('',#1595,#1341,#1342);
#1081=AXIS2_PLACEMENT_3D('',#1596,#1343,#1344);
#1082=AXIS2_PLACEMENT_3D('',#1597,#1345,#1346);
#1083=AXIS2_PLACEMENT_3D('',#1598,#1347,#1348);
#1084=AXIS2_PLACEMENT_3D('',#1599,#1349,#1350);
#1085=DIRECTION('',(0.,0.,1.));
#1086=DIRECTION('',(1.,0.,0.));
#1087=DIRECTION('',(0.,0.,1.));
#1088=DIRECTION('',(1.,0.,0.));
#1089=DIRECTION('',(0.,0.,-1.));
#1090=DIRECTION('',(1.,0.,0.));
#1091=DIRECTION('',(0.,0.,-1.));
#1092=DIRECTION('',(1.,0.,0.));
#1093=DIRECTION('',(0.,0.,-1.));
#1094=DIRECTION('',(1.,0.,0.));
#1095=DIRECTION('',(0.,0.,1.));
#1096=DIRECTION('',(1.,0.,0.));
#1097=DIRECTION('',(0.,0.,-1.));
#1098=DIRECTION('',(1.,0.,0.));
#1099=DIRECTION('',(-1.,0.,0.));
#1100=DIRECTION('',(0.,1.,0.));
#1101=DIRECTION('',(-1.,0.,0.));
#1102=DIRECTION('',(0.,1.,0.));
#1103=DIRECTION('',(0.,0.,1.));
#1104=DIRECTION('',(1.,0.,0.));
#1105=DIRECTION('',(0.,0.,1.));
#1106=DIRECTION('',(1.,0.,0.));
#1107=DIRECTION('',(0.,0.,-1.));
#1108=DIRECTION('',(1.,0.,0.));
#1109=DIRECTION('',(0.,0.,1.));
#1110=DIRECTION('',(1.,0.,0.));
#1111=DIRECTION('',(0.,0.,1.));
#1112=DIRECTION('',(1.,0.,0.));
#1113=DIRECTION('',(0.,0.,1.));
#1114=DIRECTION('',(1.,0.,0.));
#1115=DIRECTION('',(0.,0.,-1.));
#1116=DIRECTION('',(1.,0.,0.));
#1117=DIRECTION('',(0.,0.,1.));
#1118=DIRECTION('',(1.,0.,0.));
#1119=DIRECTION('',(0.,0.,1.));
#1120=DIRECTION('',(1.,0.,0.));
#1121=DIRECTION('',(0.,0.,1.));
#1122=DIRECTION('',(1.,0.,0.));
#1123=DIRECTION('',(0.,0.,1.));
#1124=DIRECTION('',(1.,0.,0.));
#1125=DIRECTION('',(0.,0.,1.));
#1126=DIRECTION('',(1.,0.,0.));
#1127=DIRECTION('',(0.,0.,1.));
#1128=DIRECTION('',(1.,0.,0.));
#1129=DIRECTION('',(0.,0.,1.));
#1130=DIRECTION('',(1.,0.,0.));
#1131=DIRECTION('',(0.,0.,1.));
#1132=DIRECTION('',(1.,0.,0.));
#1133=DIRECTION('',(-1.,0.,0.));
#1134=DIRECTION('',(0.,1.,0.));
#1135=DIRECTION('',(-1.,0.,0.));
#1136=DIRECTION('',(0.,1.,0.));
#1137=DIRECTION('',(0.,0.,1.));
#1138=DIRECTION('',(1.,0.,0.));
#1139=DIRECTION('',(0.,0.,1.));
#1140=DIRECTION('',(1.,0.,0.));
#1141=DIRECTION('',(0.,0.,1.));
#1142=DIRECTION('',(1.,0.,0.));
#1143=DIRECTION('',(0.,0.,1.));
#1144=DIRECTION('',(1.,0.,0.));
#1145=DIRECTION('',(0.,0.,1.));
#1146=DIRECTION('',(1.,0.,0.));
#1147=DIRECTION('',(0.,0.,1.));
#1148=DIRECTION('',(1.,0.,0.));
#1149=DIRECTION('',(0.,0.,1.));
#1150=DIRECTION('',(1.,0.,0.));
#1151=DIRECTION('',(0.,0.,1.));
#1152=DIRECTION('',(1.,0.,0.));
#1153=DIRECTION('',(0.,0.,1.));
#1154=DIRECTION('',(1.,0.,0.));
#1155=DIRECTION('',(0.,0.,1.));
#1156=DIRECTION('',(1.,0.,0.));
#1157=DIRECTION('',(0.,0.,1.));
#1158=DIRECTION('',(1.,0.,0.));
#1159=DIRECTION('',(0.,0.,1.));
#1160=DIRECTION('',(1.,0.,0.));
#1161=DIRECTION('',(0.,0.,1.));
#1162=DIRECTION('',(1.,0.,0.));
#1163=DIRECTION('',(0.,0.,1.));
#1164=DIRECTION('',(1.,0.,0.));
#1165=DIRECTION('',(0.,0.,1.));
#1166=DIRECTION('',(1.,0.,0.));
#1167=DIRECTION('',(0.,0.,1.));
#1168=DIRECTION('',(1.,0.,0.));
#1169=DIRECTION('',(0.,0.,1.));
#1170=DIRECTION('',(1.,0.,0.));
#1171=DIRECTION('',(0.,-1.,0.));
#1172=DIRECTION('',(-1.,0.,0.));
#1173=DIRECTION('',(0.,-1.,0.));
#1174=DIRECTION('',(1.,0.,0.));
#1175=DIRECTION('',(0.,0.,1.));
#1176=DIRECTION('',(1.,0.,0.));
#1177=DIRECTION('',(0.,0.,1.));
#1178=DIRECTION('',(1.,0.,0.));
#1179=DIRECTION('',(0.,0.,1.));
#1180=DIRECTION('',(1.,0.,0.));
#1181=DIRECTION('',(0.,0.,1.));
#1182=DIRECTION('',(1.,0.,0.));
#1183=DIRECTION('',(0.,0.,1.));
#1184=DIRECTION('',(1.,0.,0.));
#1185=DIRECTION('',(0.,0.,1.));
#1186=DIRECTION('',(1.,0.,0.));
#1187=DIRECTION('',(0.,0.,1.));
#1188=DIRECTION('',(1.,0.,0.));
#1189=DIRECTION('',(0.,0.,1.));
#1190=DIRECTION('',(1.,0.,0.));
#1191=DIRECTION('',(0.,0.,1.));
#1192=DIRECTION('',(1.,0.,0.));
#1193=DIRECTION('',(0.,0.,1.));
#1194=DIRECTION('',(1.,0.,0.));
#1195=DIRECTION('',(0.,0.,1.));
#1196=DIRECTION('',(1.,0.,0.));
#1197=DIRECTION('',(0.,0.,1.));
#1198=DIRECTION('',(1.,0.,0.));
#1199=DIRECTION('',(0.,0.,1.));
#1200=DIRECTION('',(1.,0.,0.));
#1201=DIRECTION('',(0.,0.,1.));
#1202=DIRECTION('',(1.,0.,0.));
#1203=DIRECTION('',(0.,0.,1.));
#1204=DIRECTION('',(1.,0.,0.));
#1205=DIRECTION('',(1.,0.,0.));
#1206=DIRECTION('',(0.,-1.,0.));
#1207=DIRECTION('',(-1.,0.,0.));
#1208=DIRECTION('',(0.,-1.,0.));
#1209=DIRECTION('',(0.,0.,1.));
#1210=DIRECTION('',(1.,0.,0.));
#1211=DIRECTION('',(0.,0.,1.));
#1212=DIRECTION('',(1.,0.,0.));
#1213=DIRECTION('',(0.,0.,1.));
#1214=DIRECTION('',(1.,0.,0.));
#1215=DIRECTION('',(0.,0.,1.));
#1216=DIRECTION('',(1.,0.,0.));
#1217=DIRECTION('',(0.,0.,1.));
#1218=DIRECTION('',(1.,0.,0.));
#1219=DIRECTION('',(0.,0.,1.));
#1220=DIRECTION('',(1.,0.,0.));
#1221=DIRECTION('',(0.,0.,1.));
#1222=DIRECTION('',(1.,0.,0.));
#1223=DIRECTION('',(0.,0.,1.));
#1224=DIRECTION('',(1.,0.,0.));
#1225=DIRECTION('',(0.,0.,1.));
#1226=DIRECTION('',(1.,0.,0.));
#1227=DIRECTION('',(0.,0.,1.));
#1228=DIRECTION('',(1.,0.,0.));
#1229=DIRECTION('',(0.,0.,1.));
#1230=DIRECTION('',(1.,0.,0.));
#1231=DIRECTION('',(0.,-1.,0.));
#1232=DIRECTION('',(0.,0.,-1.));
#1233=DIRECTION('',(0.,0.,1.));
#1234=DIRECTION('',(0.,0.,1.));
#1235=DIRECTION('',(0.,0.,-1.));
#1236=DIRECTION('',(0.,0.,-1.));
#1237=DIRECTION('',(-1.,0.,0.));
#1238=DIRECTION('',(0.,0.,1.));
#1239=DIRECTION('',(0.,0.,-1.));
#1240=DIRECTION('',(0.,-1.,-1.22593725240663E-16));
#1241=DIRECTION('',(0.,3.64246399155235E-16,-1.));
#1242=DIRECTION('',(0.,-1.,-1.36592399683215E-16));
#1243=DIRECTION('',(0.,-3.64246399155235E-16,1.));
#1244=DIRECTION('',(0.,-1.,-1.18507267732641E-16));
#1245=DIRECTION('',(0.,0.,1.));
#1246=DIRECTION('',(0.,1.,1.80416754398977E-16));
#1247=DIRECTION('',(0.,0.,-1.));
#1248=DIRECTION('',(0.,-1.,0.));
#1249=DIRECTION('',(0.,0.,-1.));
#1250=DIRECTION('',(0.,0.,-1.));
#1251=DIRECTION('',(0.,0.,-1.));
#1252=DIRECTION('',(0.,0.,-1.));
#1253=DIRECTION('',(-1.,0.,0.));
#1254=DIRECTION('',(0.,0.,1.));
#1255=DIRECTION('',(1.,0.,0.));
#1256=DIRECTION('',(0.,0.,-1.));
#1257=DIRECTION('',(1.,0.,0.));
#1258=DIRECTION('',(0.,0.,-1.));
#1259=DIRECTION('',(0.,3.64246399155235E-16,-1.));
#1260=DIRECTION('',(0.,-1.,-1.22593725240663E-16));
#1261=DIRECTION('',(0.,0.,-1.));
#1262=DIRECTION('',(0.,1.,1.80416754398977E-16));
#1263=DIRECTION('',(0.,0.,1.));
#1264=DIRECTION('',(0.,-1.,-1.18507267732641E-16));
#1265=DIRECTION('',(0.,-3.64246399155235E-16,1.));
#1266=DIRECTION('',(0.,-1.,-1.36592399683215E-16));
#1267=DIRECTION('',(0.,0.,1.));
#1268=DIRECTION('',(1.,0.,0.));
#1269=DIRECTION('',(0.,0.,1.));
#1270=DIRECTION('',(1.,0.,0.));
#1271=DIRECTION('',(0.,0.,1.));
#1272=DIRECTION('',(1.,0.,0.));
#1273=DIRECTION('',(0.,0.,1.));
#1274=DIRECTION('',(1.,0.,0.));
#1275=DIRECTION('',(0.,0.,1.));
#1276=DIRECTION('',(1.,0.,0.));
#1277=DIRECTION('',(0.,0.,1.));
#1278=DIRECTION('',(1.,0.,0.));
#1279=DIRECTION('',(0.,0.,1.));
#1280=DIRECTION('',(1.,0.,0.));
#1281=DIRECTION('',(0.,0.,1.));
#1282=DIRECTION('',(1.,0.,0.));
#1283=DIRECTION('',(0.,0.,1.));
#1284=DIRECTION('',(1.,0.,0.));
#1285=DIRECTION('',(0.,0.,1.));
#1286=DIRECTION('',(1.,0.,0.));
#1287=DIRECTION('',(0.,0.,1.));
#1288=DIRECTION('',(1.,0.,0.));
#1289=DIRECTION('',(0.,0.,1.));
#1290=DIRECTION('',(1.,0.,0.));
#1291=DIRECTION('',(0.,0.,1.));
#1292=DIRECTION('',(1.,0.,0.));
#1293=DIRECTION('',(0.,0.,1.));
#1294=DIRECTION('',(1.,0.,0.));
#1295=DIRECTION('',(0.,0.,1.));
#1296=DIRECTION('',(1.,0.,0.));
#1297=DIRECTION('',(0.,0.,1.));
#1298=DIRECTION('',(1.,0.,0.));
#1299=DIRECTION('',(0.,0.,1.));
#1300=DIRECTION('',(1.,0.,0.));
#1301=DIRECTION('',(0.,0.,1.));
#1302=DIRECTION('',(1.,0.,0.));
#1303=DIRECTION('',(0.,-1.22593725240663E-16,1.));
#1304=DIRECTION('',(0.,-1.,-1.22593725240663E-16));
#1305=DIRECTION('',(1.,0.,0.));
#1306=DIRECTION('',(1.,0.,0.));
#1307=DIRECTION('',(0.,-1.,0.));
#1308=DIRECTION('',(0.,0.,-1.));
#1309=DIRECTION('',(1.,0.,0.));
#1310=DIRECTION('',(0.,1.80416754398977E-16,-1.));
#1311=DIRECTION('',(0.,1.,1.80416754398977E-16));
#1312=DIRECTION('',(1.,0.,0.));
#1313=DIRECTION('',(0.,1.,0.));
#1314=DIRECTION('',(0.,0.,1.));
#1315=DIRECTION('',(1.,0.,0.));
#1316=DIRECTION('',(0.,-1.18507267732641E-16,1.));
#1317=DIRECTION('',(0.,-1.,-1.18507267732641E-16));
#1318=DIRECTION('',(1.,0.,0.));
#1319=DIRECTION('',(0.,1.,3.64246399155235E-16));
#1320=DIRECTION('',(0.,-3.64246399155235E-16,1.));
#1321=DIRECTION('',(1.,0.,0.));
#1322=DIRECTION('',(0.,-1.36592399683215E-16,1.));
#1323=DIRECTION('',(0.,-1.,-1.36592399683215E-16));
#1324=DIRECTION('',(1.,0.,0.));
#1325=DIRECTION('',(0.,-1.,-3.64246399155235E-16));
#1326=DIRECTION('',(0.,3.64246399155235E-16,-1.));
#1327=DIRECTION('',(0.,0.,1.));
#1328=DIRECTION('',(1.,0.,0.));
#1329=DIRECTION('',(0.,0.,1.));
#1330=DIRECTION('',(1.,0.,0.));
#1331=DIRECTION('',(0.,0.,1.));
#1332=DIRECTION('',(1.,0.,0.));
#1333=DIRECTION('',(0.,0.,1.));
#1334=DIRECTION('',(1.,0.,0.));
#1335=DIRECTION('',(0.,0.,1.));
#1336=DIRECTION('',(1.,0.,0.));
#1337=DIRECTION('',(0.,0.,1.));
#1338=DIRECTION('',(1.,0.,0.));
#1339=DIRECTION('',(0.,0.,1.));
#1340=DIRECTION('',(1.,0.,0.));
#1341=DIRECTION('',(0.,0.,1.));
#1342=DIRECTION('',(1.,0.,0.));
#1343=DIRECTION('',(0.,0.,1.));
#1344=DIRECTION('',(1.,0.,0.));
#1345=DIRECTION('',(0.,0.,1.));
#1346=DIRECTION('',(1.,0.,0.));
#1347=DIRECTION('',(0.,0.,1.));
#1348=DIRECTION('',(1.,0.,0.));
#1349=DIRECTION('',(0.,0.,1.));
#1350=DIRECTION('',(1.,0.,0.));
#1351=CARTESIAN_POINT('',(0.,0.,0.));
#1352=CARTESIAN_POINT('',(-0.0254,0.,0.0254));
#1353=CARTESIAN_POINT('',(-0.1739392,-0.011062867091144,0.0254));
#1354=CARTESIAN_POINT('',(-0.17145,-0.011062867091144,0.0254));
#1355=CARTESIAN_POINT('',(-0.1739392,-0.061864034182288,0.0254));
#1356=CARTESIAN_POINT('',(-0.17145,-0.061864034182288,0.0254));
#1357=CARTESIAN_POINT('',(-0.2070608,0.0397383,0.0254));
#1358=CARTESIAN_POINT('',(-0.2045716,0.0397383,0.0254));
#1359=CARTESIAN_POINT('',(-0.1905,0.15949,0.0254));
#1360=CARTESIAN_POINT('',(-0.1880108,0.15949,0.0254));
#1361=CARTESIAN_POINT('',(-0.1778,0.163276362048998,0.0254));
#1362=CARTESIAN_POINT('',(-0.1753108,0.163276362048998,0.0254));
#1363=CARTESIAN_POINT('',(-0.1905,-0.175976362048998,0.0254));
#1364=CARTESIAN_POINT('',(-0.1651,-0.175976362048998,0.0254));
#1365=CARTESIAN_POINT('',(-0.2159,-0.175976362048998,0.0254));
#1366=CARTESIAN_POINT('',(-0.1651,0.,0.0254));
#1367=CARTESIAN_POINT('',(-0.1651,0.175976362048998,0.0254));
#1368=CARTESIAN_POINT('',(-0.1905,0.175976362048998,0.0254));
#1369=CARTESIAN_POINT('',(-0.2159,0.175976362048998,0.0254));
#1370=CARTESIAN_POINT('',(-0.2159,-2.77555756156289E-17,0.0254));
#1371=CARTESIAN_POINT('',(-0.1905,0.13409,0.0254));
#1372=CARTESIAN_POINT('',(-0.180975,0.13409,0.0254));
#1373=CARTESIAN_POINT('',(-0.1778,-0.163276362048998,0.0254));
#1374=CARTESIAN_POINT('',(-0.1753108,-0.163276362048998,0.0254));
#1375=CARTESIAN_POINT('',(-0.2032,-0.163276362048998,0.0254));
#1376=CARTESIAN_POINT('',(-0.2007108,-0.163276362048998,0.0254));
#1377=CARTESIAN_POINT('',(-0.2032,0.163276362048998,0.0254));
#1378=CARTESIAN_POINT('',(-0.2007108,0.163276362048998,0.0254));
#1379=CARTESIAN_POINT('',(-0.1905,0.02159,0.0254));
#1380=CARTESIAN_POINT('',(-0.1762125,0.02159,0.0254));
#1381=CARTESIAN_POINT('',(-0.1905,-0.02159,0.0254));
#1382=CARTESIAN_POINT('',(-0.1762125,-0.02159,0.0254));
#1383=CARTESIAN_POINT('',(-0.1905,0.10869,0.0254));
#1384=CARTESIAN_POINT('',(-0.1880108,0.10869,0.0254));
#1385=CARTESIAN_POINT('',(-0.1739392,0.0397383,0.0254));
#1386=CARTESIAN_POINT('',(-0.17145,0.0397383,0.0254));
#1387=CARTESIAN_POINT('',(-0.2070608,-0.011062867091144,0.0254));
#1388=CARTESIAN_POINT('',(-0.2045716,-0.011062867091144,0.0254));
#1389=CARTESIAN_POINT('',(-0.2070608,-0.061864034182288,0.0254));
#1390=CARTESIAN_POINT('',(-0.2045716,-0.061864034182288,0.0254));
#1391=CARTESIAN_POINT('',(-0.0254,0.,-0.0254));
#1392=CARTESIAN_POINT('',(-0.2070608,-0.011062867091144,-0.0254));
#1393=CARTESIAN_POINT('',(-0.2045716,-0.011062867091144,-0.0254));
#1394=CARTESIAN_POINT('',(-0.1905,0.10869,-0.0254));
#1395=CARTESIAN_POINT('',(-0.1880108,0.10869,-0.0254));
#1396=CARTESIAN_POINT('',(-0.1778,0.163276362048998,-0.0254));
#1397=CARTESIAN_POINT('',(-0.1753108,0.163276362048998,-0.0254));
#1398=CARTESIAN_POINT('',(-0.2032,-0.163276362048998,-0.0254));
#1399=CARTESIAN_POINT('',(-0.2007108,-0.163276362048998,-0.0254));
#1400=CARTESIAN_POINT('',(-0.1905,-0.175976362048998,-0.0254));
#1401=CARTESIAN_POINT('',(-0.1651,-0.175976362048998,-0.0254));
#1402=CARTESIAN_POINT('',(-0.2159,-0.175976362048998,-0.0254));
#1403=CARTESIAN_POINT('',(-0.2159,-2.77555756156289E-17,-0.0254));
#1404=CARTESIAN_POINT('',(-0.2159,0.175976362048998,-0.0254));
#1405=CARTESIAN_POINT('',(-0.1905,0.175976362048998,-0.0254));
#1406=CARTESIAN_POINT('',(-0.1651,0.175976362048998,-0.0254));
#1407=CARTESIAN_POINT('',(-0.1651,0.,-0.0254));
#1408=CARTESIAN_POINT('',(-0.1905,0.13409,-0.0254));
#1409=CARTESIAN_POINT('',(-0.180975,0.13409,-0.0254));
#1410=CARTESIAN_POINT('',(-0.1778,-0.163276362048998,-0.0254));
#1411=CARTESIAN_POINT('',(-0.1753108,-0.163276362048998,-0.0254));
#1412=CARTESIAN_POINT('',(-0.2032,0.163276362048998,-0.0254));
#1413=CARTESIAN_POINT('',(-0.2007108,0.163276362048998,-0.0254));
#1414=CARTESIAN_POINT('',(-0.1905,0.02159,-0.0254));
#1415=CARTESIAN_POINT('',(-0.1762125,0.02159,-0.0254));
#1416=CARTESIAN_POINT('',(-0.1905,-0.02159,-0.0254));
#1417=CARTESIAN_POINT('',(-0.1762125,-0.02159,-0.0254));
#1418=CARTESIAN_POINT('',(-0.1905,0.15949,-0.0254));
#1419=CARTESIAN_POINT('',(-0.1880108,0.15949,-0.0254));
#1420=CARTESIAN_POINT('',(-0.2070608,0.0397383,-0.0254));
#1421=CARTESIAN_POINT('',(-0.2045716,0.0397383,-0.0254));
#1422=CARTESIAN_POINT('',(-0.1739392,-0.061864034182288,-0.0254));
#1423=CARTESIAN_POINT('',(-0.17145,-0.061864034182288,-0.0254));
#1424=CARTESIAN_POINT('',(-0.1739392,0.0397383,-0.0254));
#1425=CARTESIAN_POINT('',(-0.17145,0.0397383,-0.0254));
#1426=CARTESIAN_POINT('',(-0.1739392,-0.011062867091144,-0.0254));
#1427=CARTESIAN_POINT('',(-0.17145,-0.011062867091144,-0.0254));
#1428=CARTESIAN_POINT('',(-0.2070608,-0.061864034182288,-0.0254));
#1429=CARTESIAN_POINT('',(-0.2045716,-0.061864034182288,-0.0254));
#1430=CARTESIAN_POINT('',(-0.1905,0.175978362048998,-0.0238125));
#1431=CARTESIAN_POINT('',(-0.1739392,-0.011062867091144,-0.0238125));
#1432=CARTESIAN_POINT('',(-0.17145,-0.011062867091144,-0.0238125));
#1433=CARTESIAN_POINT('',(-0.1739392,-0.061864034182288,-0.0238125));
#1434=CARTESIAN_POINT('',(-0.17145,-0.061864034182288,-0.0238125));
#1435=CARTESIAN_POINT('',(-0.2070608,0.0397383,-0.0238125));
#1436=CARTESIAN_POINT('',(-0.2045716,0.0397383,-0.0238125));
#1437=CARTESIAN_POINT('',(-0.1905,0.15949,-0.0238125));
#1438=CARTESIAN_POINT('',(-0.1880108,0.15949,-0.0238125));
#1439=CARTESIAN_POINT('',(-0.1778,0.163276362048998,-0.0238125));
#1440=CARTESIAN_POINT('',(-0.1753108,0.163276362048998,-0.0238125));
#1441=CARTESIAN_POINT('',(-0.2143125,0.175978362048998,-0.0238125));
#1442=CARTESIAN_POINT('',(-0.2143125,0.175976362048998,-0.0238125));
#1443=CARTESIAN_POINT('',(-0.2143125,-0.175976362048998,-0.0238125));
#1444=CARTESIAN_POINT('',(-0.1905,-0.175976362048998,-0.0238125));
#1445=CARTESIAN_POINT('',(-0.1666875,-0.175976362048998,-0.0238125));
#1446=CARTESIAN_POINT('',(-0.1666875,0.175978362048998,-0.0238125));
#1447=CARTESIAN_POINT('',(-0.1666875,0.175976362048998,-0.0238125));
#1448=CARTESIAN_POINT('',(-0.1905,0.175976362048998,-0.0238125));
#1449=CARTESIAN_POINT('',(-0.1905,0.13409,-0.0238125));
#1450=CARTESIAN_POINT('',(-0.180975,0.13409,-0.0238125));
#1451=CARTESIAN_POINT('',(-0.1778,-0.163276362048998,-0.0238125));
#1452=CARTESIAN_POINT('',(-0.1753108,-0.163276362048998,-0.0238125));
#1453=CARTESIAN_POINT('',(-0.2032,-0.163276362048998,-0.0238125));
#1454=CARTESIAN_POINT('',(-0.2007108,-0.163276362048998,-0.0238125));
#1455=CARTESIAN_POINT('',(-0.2032,0.163276362048998,-0.0238125));
#1456=CARTESIAN_POINT('',(-0.2007108,0.163276362048998,-0.0238125));
#1457=CARTESIAN_POINT('',(-0.1905,0.02159,-0.0238125));
#1458=CARTESIAN_POINT('',(-0.1762125,0.02159,-0.0238125));
#1459=CARTESIAN_POINT('',(-0.1905,-0.02159,-0.0238125));
#1460=CARTESIAN_POINT('',(-0.1762125,-0.02159,-0.0238125));
#1461=CARTESIAN_POINT('',(-0.1905,0.10869,-0.0238125));
#1462=CARTESIAN_POINT('',(-0.1880108,0.10869,-0.0238125));
#1463=CARTESIAN_POINT('',(-0.1739392,0.0397383,-0.0238125));
#1464=CARTESIAN_POINT('',(-0.17145,0.0397383,-0.0238125));
#1465=CARTESIAN_POINT('',(-0.2070608,-0.011062867091144,-0.0238125));
#1466=CARTESIAN_POINT('',(-0.2045716,-0.011062867091144,-0.0238125));
#1467=CARTESIAN_POINT('',(-0.2070608,-0.061864034182288,-0.0238125));
#1468=CARTESIAN_POINT('',(-0.2045716,-0.061864034182288,-0.0238125));
#1469=CARTESIAN_POINT('',(-0.1905,0.175978362048998,0.0238125));
#1470=CARTESIAN_POINT('',(-0.2070608,-0.011062867091144,0.0238125));
#1471=CARTESIAN_POINT('',(-0.2045716,-0.011062867091144,0.0238125));
#1472=CARTESIAN_POINT('',(-0.1905,0.10869,0.0238125));
#1473=CARTESIAN_POINT('',(-0.1880108,0.10869,0.0238125));
#1474=CARTESIAN_POINT('',(-0.1778,0.163276362048998,0.0238125));
#1475=CARTESIAN_POINT('',(-0.1753108,0.163276362048998,0.0238125));
#1476=CARTESIAN_POINT('',(-0.2032,-0.163276362048998,0.0238125));
#1477=CARTESIAN_POINT('',(-0.2007108,-0.163276362048998,0.0238125));
#1478=CARTESIAN_POINT('',(-0.1905,0.175976362048998,0.0238125));
#1479=CARTESIAN_POINT('',(-0.2143125,0.175976362048998,0.0238125));
#1480=CARTESIAN_POINT('',(-0.1666875,0.175976362048998,0.0238125));
#1481=CARTESIAN_POINT('',(-0.1666875,0.175978362048998,0.0238125));
#1482=CARTESIAN_POINT('',(-0.1666875,-0.175976362048998,0.0238125));
#1483=CARTESIAN_POINT('',(-0.1905,-0.175976362048998,0.0238125));
#1484=CARTESIAN_POINT('',(-0.2143125,-0.175976362048998,0.0238125));
#1485=CARTESIAN_POINT('',(-0.2143125,0.175978362048998,0.0238125));
#1486=CARTESIAN_POINT('',(-0.1905,0.13409,0.0238125));
#1487=CARTESIAN_POINT('',(-0.180975,0.13409,0.0238125));
#1488=CARTESIAN_POINT('',(-0.1778,-0.163276362048998,0.0238125));
#1489=CARTESIAN_POINT('',(-0.1753108,-0.163276362048998,0.0238125));
#1490=CARTESIAN_POINT('',(-0.2032,0.163276362048998,0.0238125));
#1491=CARTESIAN_POINT('',(-0.2007108,0.163276362048998,0.0238125));
#1492=CARTESIAN_POINT('',(-0.1905,0.02159,0.0238125));
#1493=CARTESIAN_POINT('',(-0.1762125,0.02159,0.0238125));
#1494=CARTESIAN_POINT('',(-0.1905,-0.02159,0.0238125));
#1495=CARTESIAN_POINT('',(-0.1762125,-0.02159,0.0238125));
#1496=CARTESIAN_POINT('',(-0.1905,0.15949,0.0238125));
#1497=CARTESIAN_POINT('',(-0.1880108,0.15949,0.0238125));
#1498=CARTESIAN_POINT('',(-0.2070608,0.0397383,0.0238125));
#1499=CARTESIAN_POINT('',(-0.2045716,0.0397383,0.0238125));
#1500=CARTESIAN_POINT('',(-0.1739392,-0.061864034182288,0.0238125));
#1501=CARTESIAN_POINT('',(-0.17145,-0.061864034182288,0.0238125));
#1502=CARTESIAN_POINT('',(-0.1739392,0.0397383,0.0238125));
#1503=CARTESIAN_POINT('',(-0.17145,0.0397383,0.0238125));
#1504=CARTESIAN_POINT('',(-0.1739392,-0.011062867091144,0.0238125));
#1505=CARTESIAN_POINT('',(-0.17145,-0.011062867091144,0.0238125));
#1506=CARTESIAN_POINT('',(-0.2070608,-0.061864034182288,0.0238125));
#1507=CARTESIAN_POINT('',(-0.2045716,-0.061864034182288,0.0238125));
#1508=CARTESIAN_POINT('',(-0.1905,-0.175976362048998,0.0254));
#1509=CARTESIAN_POINT('',(-0.1666875,-0.175976362048998,-3.46944695195361E-18));
#1510=CARTESIAN_POINT('',(-0.2143125,-0.175976362048998,-3.46944695195361E-18));
#1511=CARTESIAN_POINT('',(-0.1651,-0.175976362048998,0.0254));
#1512=CARTESIAN_POINT('',(-0.2159,-0.175976362048998,0.0254));
#1513=CARTESIAN_POINT('',(-0.1651,0.,0.0254));
#1514=CARTESIAN_POINT('',(-0.1651,-0.144226362048998,-0.0127));
#1515=CARTESIAN_POINT('',(-0.1651,-0.144226362048998,-0.00317499999999988));
#1516=CARTESIAN_POINT('',(-0.1651,-0.144226362048998,-0.022225));
#1517=CARTESIAN_POINT('',(-0.1651,-0.0911631810244988,-0.00317499999999988));
#1518=CARTESIAN_POINT('',(-0.1651,-0.0381,-0.00317499999999987));
#1519=CARTESIAN_POINT('',(-0.1651,-0.0381,0.00635000000000013));
#1520=CARTESIAN_POINT('',(-0.1651,-0.0381,0.015875));
#1521=CARTESIAN_POINT('',(-0.1651,1.38777878078145E-17,0.015875));
#1522=CARTESIAN_POINT('',(-0.1651,0.0381,0.015875));
#1523=CARTESIAN_POINT('',(-0.1651,0.0381,0.00635000000000013));
#1524=CARTESIAN_POINT('',(-0.1651,0.0381,-0.00317499999999987));
#1525=CARTESIAN_POINT('',(-0.1651,0.0911631810244988,-0.00317499999999992));
#1526=CARTESIAN_POINT('',(-0.1651,0.144226362048998,-0.00317499999999992));
#1527=CARTESIAN_POINT('',(-0.1651,0.144226362048998,-0.0127));
#1528=CARTESIAN_POINT('',(-0.1651,0.144226362048998,-0.022225));
#1529=CARTESIAN_POINT('',(-0.1651,-2.77555756156289E-17,-0.022225));
#1530=CARTESIAN_POINT('',(-0.1651,0.175976362048998,0.0254));
#1531=CARTESIAN_POINT('',(-0.1905,0.175976362048998,0.0254));
#1532=CARTESIAN_POINT('',(-0.1666875,0.175976362048998,-3.46944695195361E-18));
#1533=CARTESIAN_POINT('',(-0.2143125,0.175976362048998,-3.46944695195361E-18));
#1534=CARTESIAN_POINT('',(-0.2159,0.175976362048998,0.0254));
#1535=CARTESIAN_POINT('',(-0.2159,-2.77555756156289E-17,0.0254));
#1536=CARTESIAN_POINT('',(-0.2143125,0.175978362048998,-3.46944695195361E-18));
#1537=CARTESIAN_POINT('',(-0.1666875,0.175978362048998,-3.46944695195361E-18));
#1538=CARTESIAN_POINT('',(-0.1666875,-0.0381,-8.14467194653518E-17));
#1539=CARTESIAN_POINT('',(-0.1666875,-0.0381,0.015875));
#1540=CARTESIAN_POINT('',(-0.1666875,-0.0381,-0.00317499999999987));
#1541=CARTESIAN_POINT('',(-0.1666875,0.175978362048998,-0.00317499999999985));
#1542=CARTESIAN_POINT('',(-0.1666875,-0.144226362048998,-0.00317499999999988));
#1543=CARTESIAN_POINT('',(-0.1666875,-0.144226362048998,-3.46944695195361E-18));
#1544=CARTESIAN_POINT('',(-0.1666875,-0.144226362048998,-0.022225));
#1545=CARTESIAN_POINT('',(-0.1666875,0.175978362048998,-0.022225));
#1546=CARTESIAN_POINT('',(-0.1666875,0.144226362048998,-0.022225));
#1547=CARTESIAN_POINT('',(-0.1666875,0.144226362048998,-3.46944695195361E-18));
#1548=CARTESIAN_POINT('',(-0.1666875,0.144226362048998,-0.00317499999999992));
#1549=CARTESIAN_POINT('',(-0.1666875,0.175978362048998,-0.00317499999999991));
#1550=CARTESIAN_POINT('',(-0.1666875,0.0381,-0.00317499999999987));
#1551=CARTESIAN_POINT('',(-0.1666875,0.0381,-5.36911438497229E-17));
#1552=CARTESIAN_POINT('',(-0.1666875,0.0381,0.015875));
#1553=CARTESIAN_POINT('',(-0.1666875,0.175978362048998,0.015875));
#1554=CARTESIAN_POINT('',(-0.1905,0.13409,-0.025402));
#1555=CARTESIAN_POINT('',(-0.1778,-0.163276362048998,-0.025402));
#1556=CARTESIAN_POINT('',(-0.2032,-0.163276362048998,-0.025402));
#1557=CARTESIAN_POINT('',(-0.1778,0.163276362048998,-0.025402));
#1558=CARTESIAN_POINT('',(-0.2032,0.163276362048998,-0.025402));
#1559=CARTESIAN_POINT('',(-0.1905,0.02159,-0.025402));
#1560=CARTESIAN_POINT('',(-0.1905,-0.02159,-0.025402));
#1561=CARTESIAN_POINT('',(-0.1905,0.10869,-0.025402));
#1562=CARTESIAN_POINT('',(-0.1905,0.15949,-0.025402));
#1563=CARTESIAN_POINT('',(-0.1905,0.13409,-0.025402));
#1564=CARTESIAN_POINT('',(-0.1778,-0.163276362048998,-0.025402));
#1565=CARTESIAN_POINT('',(-0.2032,-0.163276362048998,-0.025402));
#1566=CARTESIAN_POINT('',(-0.1778,0.163276362048998,-0.025402));
#1567=CARTESIAN_POINT('',(-0.2032,0.163276362048998,-0.025402));
#1568=CARTESIAN_POINT('',(-0.1905,0.02159,-0.025402));
#1569=CARTESIAN_POINT('',(-0.1905,-0.02159,-0.025402));
#1570=CARTESIAN_POINT('',(-0.1905,0.10869,-0.025402));
#1571=CARTESIAN_POINT('',(-0.1905,0.15949,-0.025402));
#1572=CARTESIAN_POINT('',(-0.212725,-0.0911631810244988,-0.00317499999999988));
#1573=CARTESIAN_POINT('',(-0.212725,-0.0381,-0.00317499999999987));
#1574=CARTESIAN_POINT('',(-0.212725,-0.144226362048998,-0.00317499999999988));
#1575=CARTESIAN_POINT('',(-0.212725,-0.144226362048998,-0.0127));
#1576=CARTESIAN_POINT('',(-0.212725,-0.144226362048998,-0.022225));
#1577=CARTESIAN_POINT('',(-0.212725,-2.77555756156289E-17,-0.022225));
#1578=CARTESIAN_POINT('',(-0.212725,0.144226362048998,-0.022225));
#1579=CARTESIAN_POINT('',(-0.212725,0.144226362048998,-0.0127));
#1580=CARTESIAN_POINT('',(-0.212725,0.144226362048998,-0.00317499999999992));
#1581=CARTESIAN_POINT('',(-0.212725,0.0911631810244988,-0.00317499999999992));
#1582=CARTESIAN_POINT('',(-0.212725,0.0381,-0.00317499999999987));
#1583=CARTESIAN_POINT('',(-0.212725,0.0381,0.00635000000000013));
#1584=CARTESIAN_POINT('',(-0.212725,0.0381,0.015875));
#1585=CARTESIAN_POINT('',(-0.212725,1.38777878078145E-17,0.015875));
#1586=CARTESIAN_POINT('',(-0.212725,-0.0381,0.015875));
#1587=CARTESIAN_POINT('',(-0.212725,-0.0381,0.00635000000000013));
#1588=CARTESIAN_POINT('',(-0.2070608,0.0397383,-0.025402));
#1589=CARTESIAN_POINT('',(-0.1739392,-0.061864034182288,-0.025402));
#1590=CARTESIAN_POINT('',(-0.1739392,0.0397383,-0.025402));
#1591=CARTESIAN_POINT('',(-0.2070608,-0.011062867091144,-0.025402));
#1592=CARTESIAN_POINT('',(-0.1739392,-0.011062867091144,-0.025402));
#1593=CARTESIAN_POINT('',(-0.2070608,-0.061864034182288,-0.025402));
#1594=CARTESIAN_POINT('',(-0.2070608,0.0397383,-0.025402));
#1595=CARTESIAN_POINT('',(-0.1739392,-0.061864034182288,-0.025402));
#1596=CARTESIAN_POINT('',(-0.1739392,0.0397383,-0.025402));
#1597=CARTESIAN_POINT('',(-0.2070608,-0.011062867091144,-0.025402));
#1598=CARTESIAN_POINT('',(-0.1739392,-0.011062867091144,-0.025402));
#1599=CARTESIAN_POINT('',(-0.2070608,-0.061864034182288,-0.025402));
#1600=MECHANICAL_DESIGN_GEOMETRIC_PRESENTATION_REPRESENTATION('',(#965),
#1601);
#1601=(
GEOMETRIC_REPRESENTATION_CONTEXT(3)
GLOBAL_UNCERTAINTY_ASSIGNED_CONTEXT((#1602))
GLOBAL_UNIT_ASSIGNED_CONTEXT((#1605,#1604,#1603))
REPRESENTATION_CONTEXT('25-201-A','TOP_LEVEL_ASSEMBLY_PART')
);
#1602=UNCERTAINTY_MEASURE_WITH_UNIT(LENGTH_MEASURE(1.E-8),#1605,
'DISTANCE_ACCURACY_VALUE','Maximum Tolerance applied to model');
#1603=(
NAMED_UNIT(*)
SI_UNIT($,.STERADIAN.)
SOLID_ANGLE_UNIT()
);
#1604=(
NAMED_UNIT(*)
PLANE_ANGLE_UNIT()
SI_UNIT($,.RADIAN.)
);
#1605=(
LENGTH_UNIT()
NAMED_UNIT(*)
SI_UNIT($,.METRE.)
);
#1606=PRODUCT_DEFINITION_SHAPE('','',#1607);
#1607=PRODUCT_DEFINITION('','',#1609,#1608);
#1608=PRODUCT_DEFINITION_CONTEXT('',#1615,'design');
#1609=PRODUCT_DEFINITION_FORMATION_WITH_SPECIFIED_SOURCE('','',#1611,
 .NOT_KNOWN.);
#1610=PRODUCT_RELATED_PRODUCT_CATEGORY('','',(#1611));
#1611=PRODUCT('25-201-A','25-201-A','25-201-A',(#1613));
#1612=PRODUCT_CATEGORY('','');
#1613=PRODUCT_CONTEXT('',#1615,'mechanical');
#1614=APPLICATION_PROTOCOL_DEFINITION('international standard',
'ap242_managed_model_based_3d_engineering',2011,#1615);
#1615=APPLICATION_CONTEXT('managed model based 3d engineering');
ENDSEC;
END-ISO-10303-21;
